<?xml version="1.0" standalone="no"?>
<!DOCTYPE svg PUBLIC "-//W3C//DTD SVG 1.1//EN" "http://www.w3.org/Graphics/SVG/1.1/DTD/svg11.dtd" >
<svg>
<metadata>
Created by FontForge 20090914 at Wed Oct  2 19:17:43 2013
 By www-data
Converted by ALLTYPE
</metadata>
<defs>
<font id="Futura-Condensed-Bold" horiz-adv-x="244" >
  <font-face 
    font-family="Futura-Condensed-Bold"
    font-weight="5"
    font-stretch="normal"
    units-per-em="1000"
    panose-1="0 0 0 0 0 0 0 0 0 0"
    ascent="800"
    descent="-200"
    x-height="504"
    cap-height="756"
    bbox="-87 -260 1206 1018.03"
    underline-thickness="50"
    underline-position="-55"
    unicode-range="U+0020-U+F002"
  />
<missing-glyph 
 />
    <glyph glyph-name=".notdef" 
 />
    <glyph glyph-name="space" unicode=" " 
 />
    <glyph glyph-name="space" unicode="&#xa0;" 
 />
    <glyph glyph-name="exclam" unicode="!" 
d="M24 87c2 29.333 13.166 51.665 33.499 66.998s42.5 23.333 66.5 24c23.333 0 44.833 -7.5 64.5 -22.5s30.167 -38.167 31.5 -69.5v-3v-4c0.666992 -29.333 -9.16602 -51.5 -29.499 -66.5s-42.833 -22.833 -67.5 -23.5h-1.5h-1.5c-24 0.666992 -46 8.83398 -66 24.501
s-30 39.834 -30 72.501v1zM46.999 227.999v520h150v-520h-150v0z" />
    <glyph glyph-name="quotedbl" unicode="&#x22;" horiz-adv-x="362" 
d="M24 465l-16 283h142l-16 -283h-110v0zM205 465l-16 283h142l-16 -283h-110v0z" />
    <glyph glyph-name="numbersign" unicode="#" horiz-adv-x="488" 
d="M87 0l23 244h-86v95h94l8 86h-79v103h87l23 236h87l-24 -236h71l24 236h87l-24 -236h79v-103h-87l-8 -86h79v-95h-87l-23 -244h-87l24 244h-71l-24 -244h-86v0zM205 339h71l7 86h-70l-8 -86v0z" />
    <glyph glyph-name="dollar" unicode="$" horiz-adv-x="488" 
d="M94 189c8 -8.66699 15.8311 -16.3398 23.498 -23.0068s15.5 -13 23.5 -19c18 -12 35.667 -20.833 53 -26.5s33.666 -8.5 48.999 -8.5c27.333 0 50.166 8.16699 68.499 24.5s27.5 38.833 27.5 67.5v0.5v1.5v1.5v0.5c0 23.333 -9.33301 42.333 -28 57
s-41.667 28.334 -69 41.001c-10 5.33301 -20.5 10.333 -31.5 15s-22.167 9.66699 -33.5 15c-40 20 -76.833 45.5 -110.5 76.5s-50.5 76.5 -50.5 136.5v4.5v4.5c0 51.333 16.167 93.333 48.5 126s67.833 54.334 106.5 65.001c6 1.33301 11.833 2.5 17.5 3.5
s11.167 1.83301 16.5 2.5v72h78v-71c28.667 -4 53.334 -10.667 74.001 -20s40.334 -23 59.001 -41l12.5 -12.5c4.33301 -4.33301 8.5 -9.16602 12.5 -14.499l-79 -85c-6 6 -12.167 11.667 -18.5 17s-12.833 10 -19.5 14c-12.667 8.66699 -25.167 14.834 -37.5 18.501
s-24.166 5.5 -35.499 5.5c-26.667 0 -49 -8 -67 -24s-27 -34.667 -27 -56c0 -22.667 8.5 -40.167 25.5 -52.5s37.833 -23.833 62.5 -34.5l34.5 -14c11.667 -4.66699 23.5 -9.66699 35.5 -15c37.333 -17.333 72 -42 104 -74s49.667 -81.667 53 -149
c0 -54.667 -15.333 -102.334 -46 -143.001s-75.667 -68.667 -135 -84v-86h-78v86c-2.66699 0.666992 -5.5 1.33398 -8.5 2.00098s-5.83301 1.33398 -8.5 2.00098c-45.333 10.667 -80.666 22.334 -105.999 35.001s-47.333 28.334 -66 47.001l70 111v0z" />
    <glyph glyph-name="percent" unicode="%" horiz-adv-x="858" 
d="M646 425c53.333 -0.666992 93.667 -23.501 121 -68.501s41.333 -94.5 42 -148.5v-3.5v-2.5c0 -53.333 -12.833 -101.666 -38.5 -144.999s-64.5 -65 -116.5 -65c-52.667 0 -92.167 22.333 -118.5 67s-39.5 94 -39.5 148v1.5v1.5c0.666992 53.333 13.5 102.333 38.5 147
s62.167 67 111.5 67v1zM654.001 314.999c-14 -0.666992 -24.5 -12 -31.5 -34s-10.5 -46.333 -10.5 -73v-1.5v-1.5c0 -26 3.5 -49.833 10.5 -71.5s17.5 -32.5 31.5 -32.5c13.333 0 23 10.333 29 31s9 43.667 9 69v4v4c-0.666992 26 -4.16699 50 -10.5 72s-15.5 33 -27.5 33v1
zM197.001 7.99902l346 740h103l-347 -740h-102v0zM181.001 755.999c53.333 -0.666992 93.833 -23.5 121.5 -68.5s41.834 -94.5 42.501 -148.5v-3.5v-2.5c0 -53.333 -12.833 -101.833 -38.5 -145.5s-64.834 -65.5 -117.501 -65.5s-92.167 22.5 -118.5 67.5
s-39.5 94.5 -39.5 148.5v1.5v1.5c0.666992 53.333 13.5 102.333 38.5 147s62.167 67 111.5 67v1zM189.001 645.999c-13.333 -0.666992 -23.5 -12 -30.5 -34s-10.5 -46.333 -10.5 -73v-1.5v-1.5c0 -26 3.33301 -49.833 10 -71.5s17 -32.5 31 -32.5c13.333 0 23 10.333 29 31
s9 43.667 9 69v4v4c-0.666992 26 -4.16699 50 -10.5 72s-15.5 33 -27.5 33v1z" />
    <glyph glyph-name="ampersand" unicode="&#x26;" horiz-adv-x="591" 
d="M402 228c8 7.33301 15.335 14.5029 22.002 21.5029l20 21.5c6.66699 6.66699 12.834 13.5 18.501 20.5l17.5 22.5l79 -109c-0.666992 -1.33301 -1.33398 -2.5 -2.00098 -3.5s-1.33398 -1.83301 -2.00098 -2.5c-10 -13.333 -20.5 -25.333 -31.5 -36s-24.167 -21 -39.5 -31
c-2 -1.33301 -4 -2.5 -6 -3.5s-4 -2.16699 -6 -3.5l87 -125h-157l-32 47c-12 -10.667 -24.167 -19.5 -36.5 -26.5s-24.5 -12.833 -36.5 -17.5c-12.667 -3.33301 -25.167 -6.16602 -37.5 -8.49902s-24.5 -3.5 -36.5 -3.5c-52.667 -0.666992 -99 17.833 -139 55.5
s-62.667 84.834 -68 141.501c-0.666992 3.33301 -1 6.66602 -1 9.99902v9c0 45.333 11.167 84.166 33.5 116.499s48.166 63.166 77.499 92.499c-18.667 30.667 -32 59.5 -40 86.5s-12 51.833 -12 74.5c0 51.333 16.167 91.166 48.5 119.499s70.166 42.5 113.499 42.5
c61.333 0 108.333 -15.333 141 -46s49.334 -67.334 50.001 -110.001c0 -10 -0.833008 -20.167 -2.5 -30.5s-4.5 -20.5 -8.5 -30.5c-8.66699 -24.667 -22.667 -48.667 -42 -72s-44.333 -45 -75 -65l103 -157v0zM205.002 299.003c-8 -6 -15.668 -14.668 -23.001 -26.001
s-12.666 -23 -15.999 -35l-2 -10c-0.666992 -3.33301 -1 -6.66602 -1 -9.99902c0 -2.66699 0.166992 -5.16699 0.5 -7.5s0.833008 -4.5 1.5 -6.5c5.33301 -21.333 15 -40 29 -56s30.333 -24 49 -24c8.66699 0 17.667 2 27 6s19 10.333 29 19l-94 150v0zM236.001 496.002
c12.667 6.66699 23.168 14.667 31.501 24s14.166 19 17.499 29c2 4.66699 3.33301 9 4 13s1 8 1 12c0.666992 13.333 -3 24.5 -11 33.5s-19.667 13.5 -35 13.5c-12.667 0 -23 -4 -31 -12s-12 -18.667 -12 -32c0 -10.667 2.83301 -23 8.5 -37s14.5 -29 26.5 -45v1z" />
    <glyph glyph-name="quotesingle" unicode="'" horiz-adv-x="299" 
d="M16 449l102 307h150l-150 -307h-102v0z" />
    <glyph glyph-name="parenleft" unicode="(" horiz-adv-x="299" 
d="M142 -126c-22 40.667 -40.501 81.833 -55.501 123.5s-26.833 83.834 -35.5 126.501c-6.66699 32 -11.5 63.833 -14.5 95.5s-4.5 63.167 -4.5 94.5c0 88 10.167 171.5 30.5 250.5s46.833 147.833 79.5 206.5l134 -31c-36.667 -74.667 -62.667 -146.167 -78 -214.5
s-23 -133.166 -23 -194.499c-0.666992 -78 7.83301 -149.5 25.5 -214.5s36.834 -121.833 57.501 -170.5c3.33301 -6.66699 6.5 -13.334 9.5 -20.001s5.83301 -13.334 8.5 -20.001l-134 -32v0z" />
    <glyph glyph-name="parenright" unicode=")" horiz-adv-x="299" 
d="M16 -102c28.667 65.333 51.333 133.836 68 205.503s25 144.834 25 219.501c0 15.333 -0.333008 30.666 -1 45.999s-1.66699 30.666 -3 45.999c-5.33301 53.333 -16 106.5 -32 159.5s-37.667 105.167 -65 156.5l134 41c34 -70.667 61.333 -144.167 82 -220.5
s31 -155.5 31 -237.5c0 -70.667 -8.83301 -143.334 -26.5 -218.001s-46.5 -151.334 -86.5 -230.001l-126 32v0z" />
    <glyph glyph-name="asterisk" unicode="*" horiz-adv-x="378" 
d="M126 583l-110 55l39 63l102 -63v118h71v-118l87 63l47 -63l-102 -55l102 -55l-39 -63l-95 63v-126h-71v126l-102 -71l-39 63l110 63v0z" />
    <glyph glyph-name="plus" unicode="+" horiz-adv-x="488" 
d="M181 16v189h-165v118h165v189h118v-189h166v-118h-166v-189h-118v0z" />
    <glyph glyph-name="comma" unicode="," 
d="M-31 -142l102 307h149l-149 -307h-102v0z" />
    <glyph glyph-name="hyphen" unicode="-" horiz-adv-x="315" 
d="M24 268v141h259v-141h-259v0z" />
    <glyph glyph-name="period" unicode="." 
d="M24 94c2 29.333 13.166 51.832 33.499 67.499s42.5 23.5 66.5 23.5h1.5h1.5c22.667 -0.666992 43.5 -8.66699 62.5 -24s29.167 -38 30.5 -68v-2.5v-3.5c0.666992 -29.333 -9.16602 -51.666 -29.499 -66.999s-42.833 -23 -67.5 -23h-1.5h-1.5
c-24 0.666992 -46 8.66699 -66 24s-30 39.333 -30 72v1z" />
    <glyph glyph-name="slash" unicode="/" horiz-adv-x="543" 
d="M31 -165l394 976h118l-393 -976h-119v0z" />
    <glyph glyph-name="zero" unicode="0" horiz-adv-x="488" 
d="M31 386c0 98 14.833 186.668 44.5 266.001s85.834 119 168.501 119h2h2h2h2c64 0.666992 110.667 -27.5 140 -84.5s48.666 -119.833 57.999 -188.5c2.66699 -20.667 4.5 -41.334 5.5 -62.001s1.5 -40.334 1.5 -59.001c0 -106.667 -15.667 -198.834 -47 -276.501
s-86.666 -116.5 -165.999 -116.5c-66.667 0 -115.334 29 -146.001 87s-50.667 122.333 -60 193c-2.66699 20.667 -4.5 41.334 -5.5 62.001s-1.5 40.334 -1.5 59.001v1zM173 394.001c0.666992 -10 1.16504 -19.501 1.49805 -28.501s0.833008 -17.833 1.5 -26.5
c2.66699 -68 7.66699 -122 15 -162s25 -60 53 -60c24.667 0 41.834 15.667 51.501 47s15.834 66 18.501 104c0.666992 16.667 1 33.334 1 50.001v45v11.5v10.5c0 13.333 -0.333008 29 -1 47s-2 36 -4 54c-3.33301 36 -10 68.833 -20 98.5s-25.333 44.5 -46 44.5
s-36 -14.5 -46 -43.5s-17 -60.833 -21 -95.5c-1.33301 -18 -2.33301 -35.333 -3 -52s-1 -31.667 -1 -45v1z" />
    <glyph glyph-name="one" unicode="1" horiz-adv-x="488" 
d="M181 0v630h-71v134h221v-764h-150v0z" />
    <glyph glyph-name="two" unicode="2" horiz-adv-x="488" 
d="M47 496l-2.00195 23.9971c-0.666992 8 -1 16 -1 24c0 66.667 15.833 121.167 47.5 163.5s82.5 63.5 152.5 63.5c66.667 0 114.334 -16.667 143.001 -50s46 -70 52 -110c1.33301 -6.66699 2.16602 -13.5 2.49902 -20.5s0.5 -13.833 0.5 -20.5
c0.666992 -14 0.166992 -27.333 -1.5 -40s-4.16699 -24.334 -7.5 -35.001c-2 -8.66699 -4.33301 -17.167 -7 -25.5s-5.66699 -16.833 -9 -25.5c-9.33301 -25.333 -20.166 -50.166 -32.499 -74.499l-37.5 -70.5c-21.333 -38.667 -41.333 -72.667 -60 -102
s-30.334 -50.666 -35.001 -63.999l181 1v-134h-409l44.5 75l49.5 87c1.33301 2.66699 2.83301 5.33398 4.5 8.00098s3.16699 5.33398 4.5 8.00098l73.5 132.5c23 42.333 40.167 74.833 51.5 97.5c17.333 31.333 30 61 38 89s12 52.667 12 74c0 27.333 -5.33301 49 -16 65
s-24.667 24 -42 24c-21.333 0 -36.166 -10.5 -44.499 -31.5s-13.166 -43.833 -14.499 -68.5v-6.5v-6.5c0 -9.33301 0.5 -18.5 1.5 -27.5s1.83301 -17.167 2.5 -24.5l-142 1v0z" />
    <glyph glyph-name="three" unicode="3" horiz-adv-x="488" 
d="M181 323l-0.000976562 142.003c3.33301 -1.33301 6.83301 -2 10.5 -2h9.5c40 0 66 8.16699 78 24.5s18.667 34.5 20 54.5v8v8v12.5c0 4.33301 -0.333008 8.5 -1 12.5c-1.33301 13.333 -5.5 25.666 -12.5 36.999s-20.833 17 -41.5 17c-14 0 -24.333 -5 -31 -15
s-11 -21 -13 -33c-1.33301 -6.66699 -2.16602 -13 -2.49902 -19s-0.5 -11.333 -0.5 -16v-8.5v-3.5l-134 1c0 58.667 13.167 110 39.5 154s70.833 66 133.5 66h4h4c1.33301 0 2.66602 0.166992 3.99902 0.5s2.66602 0.5 3.99902 0.5c62 0 109 -18.833 141 -56.5
s48 -84.834 48 -141.501c0 -47.333 -8.83301 -85.5 -26.5 -114.5s-40.5 -51.167 -68.5 -66.5c30 -5.33301 53.333 -18.166 70 -38.499s29 -42.5 37 -66.5c4.66699 -14 7.83398 -27.667 9.50098 -41s2.5 -25 2.5 -35c-4 -58.667 -22 -110 -54 -154s-87.667 -66 -167 -66
c-6.66699 0 -13.5 0.333008 -20.5 1l-21.5 2c-41.333 7.33301 -79.166 25.166 -113.499 53.499s-51.833 70.5 -52.5 126.5c0 6 0.333008 12 1 18s1.33398 12.333 2.00098 19l134 1v-9c0 -2.66699 0.333008 -5.33398 1 -8.00098c2 -17.333 7.66699 -33.5 17 -48.5
s24.333 -22.5 45 -22.5c27.333 0 44.666 11.5 51.999 34.5s11 48.167 11 75.5c0 48 -7.66699 75.833 -23 83.5s-41.333 11.5 -78 11.5h-8.5h-8.5v1z" />
    <glyph glyph-name="four" unicode="4" horiz-adv-x="488" 
d="M244 181h-213v118l197 449h166v-449h63v-118h-63v-181h-150v181v0zM260 299v299l-126 -299h126v0z" />
    <glyph glyph-name="five" unicode="5" horiz-adv-x="488" 
d="M79 386l62.999 369.996h291v-126h-189l-24 -126c59.333 -4.66699 112.333 -26 159 -64s70 -98.333 70 -181c0 -70.667 -20 -134.167 -60 -190.5s-101.333 -84.5 -184 -84.5l-30 3.5c-20 2.33301 -42 6.5 -66 12.5c-11.333 2.66699 -22.333 5.83398 -33 9.50098
s-20.334 8.16699 -29.001 13.5l32 134c17.333 -13.333 33.833 -23.166 49.5 -29.499s30.834 -9.5 45.501 -9.5c31.333 0 57.333 12 78 36s31 54.667 31 92v3.5v3.5v3v3c0 38 -11 68.833 -33 92.5s-62 35.834 -120 36.501c-8 0 -16.167 -0.166992 -24.5 -0.5
s-17.166 -1.16602 -26.499 -2.49902v1z" />
    <glyph glyph-name="six" unicode="6" horiz-adv-x="488" 
d="M346 756l-141.003 -298.997c0 -0.666992 3.33301 1.16602 10 5.49902s15.334 8.83301 26.001 13.5s22.834 9.16699 36.501 13.5s27.834 6.5 42.501 6.5c16 0 31.667 -3.5 47 -10.5s29.333 -19.5 42 -37.5c13.333 -18.667 23.833 -44 31.5 -76s11.5 -66.333 11.5 -103
c0 -6.66699 -0.166992 -13.167 -0.5 -19.5s-0.833008 -12.833 -1.5 -19.5c-4.66699 -62 -21.834 -118.5 -51.501 -169.5s-75.834 -76.5 -138.501 -76.5h-2h-2h-2h-2c-42.667 0 -78.167 11 -106.5 33s-50.166 46.333 -65.499 73c-6 10 -11.167 20.167 -15.5 30.5
s-7.5 19.833 -9.5 28.5c-5.33301 16.667 -9.33301 34.5 -12 53.5s-4 38.833 -4 59.5c0 11.333 0.333008 22.666 1 33.999s1.66699 22.666 3 33.999c3.33301 27.333 8.83301 54.5 16.5 81.5s16.834 52.167 27.501 75.5l126 269h133v0zM251.997 370.003
c-24.667 -2.66699 -42.668 -16.999 -54.001 -42.999s-17.333 -54.667 -18 -86v-1.5v-1.5c0 -32.667 5.33301 -62.334 16 -89.001s25.334 -40 44.001 -40h2.5h1.5c21.333 2 37.833 16 49.5 42s18.167 54.333 19.5 85v5.5v5.5c0.666992 30 -4 57.333 -14 82s-25.667 38 -47 40
v1z" />
    <glyph glyph-name="seven" unicode="7" horiz-adv-x="488" 
d="M71 756h401l-275 -756h-158l237 630h-205v126v0z" />
    <glyph glyph-name="eight" unicode="8" horiz-adv-x="488" 
d="M323 402c7.33301 -2 16.0039 -5 26.0039 -9s20 -9.66699 30 -17c20 -14 38.167 -34.333 54.5 -61s24.5 -60 24.5 -100c0 -14.667 -1.33301 -30 -4 -46s-7 -33.333 -13 -52c-12.667 -38.667 -38.5 -68.834 -77.5 -90.501s-81.167 -32.5 -126.5 -32.5
c-40.667 0 -79.5 9.83301 -116.5 29.5s-64.167 50.834 -81.5 93.501c-6.66699 17.333 -11.5 33.833 -14.5 49.5s-4.83301 30.834 -5.5 45.501c0 44 11 81.167 33 111.5s46.333 52.166 73 65.499c5.33301 2.66699 10.666 5 15.999 7s10.666 3.66699 15.999 5
c-38.667 18 -66.334 40.5 -83.001 67.5s-25 55.833 -25 86.5c0 8 0.5 16.167 1.5 24.5s2.5 16.5 4.5 24.5s4.33301 16.167 7 24.5s5.66699 16.5 9 24.5c13.333 34.667 35.666 60.667 66.999 78s64.666 26 99.999 26h2h3c36.667 -0.666992 71.334 -10.834 104.001 -30.501
s56 -49.5 70 -89.5c3.33301 -12 6.33301 -24.667 9 -38s4 -26.666 4 -39.999v-7.5v-6.5c-2 -27.333 -10.833 -53.833 -26.5 -79.5s-42.5 -47.167 -80.5 -64.5v1zM244.004 339c-22.667 -2.66699 -39.501 -15.166 -50.501 -37.499s-16.833 -46.833 -17.5 -73.5v-1.5v-1.5
c0 -26.667 5.33301 -51.334 16 -74.001s26.334 -34 47.001 -34h1.5h1.5h0.5h1.5c21.333 2 37 13.667 47 35s15 45 15 71v1.5v1.5c-0.666992 27.333 -6.16699 52.333 -16.5 75s-25.5 35 -45.5 37v1zM236.003 646.001c-14 -0.666992 -24.667 -9.83105 -32 -27.498
s-11.333 -36.834 -12 -57.501v-1.5v-1.5c0 -20 3.5 -38.167 10.5 -54.5s18.167 -24.5 33.5 -24.5c17.333 0 30.5 8.5 39.5 25.5s13.5 35.833 13.5 56.5c0.666992 21.333 -3.5 40.666 -12.5 57.999s-22.5 26 -40.5 26v1z" />
    <glyph glyph-name="nine" unicode="9" horiz-adv-x="488" 
d="M142 0l140.998 291.001c-10 -11.333 -20.5 -20.166 -31.5 -26.499s-22.167 -10.833 -33.5 -13.5l-13.5 -2c-4.33301 -0.666992 -8.83301 -1 -13.5 -1c-22.667 0 -44.167 6.5 -64.5 19.5s-36.166 31.167 -47.499 54.5c-10 20 -17.667 37.667 -23 53
s-9.33301 30.666 -12 45.999c-2.66699 14.667 -4.16699 29.667 -4.5 45s-0.5 33 -0.5 53c0 70.667 18.833 127.667 56.5 171s89.834 65 156.501 65c50.667 0 91 -14.333 121 -43s51.667 -60 65 -94c6.66699 -16.667 11.5 -32.834 14.5 -48.501s4.5 -29.834 4.5 -42.501
c0 -2.66699 0.166992 -5.16699 0.5 -7.5s0.5 -4.5 0.5 -6.5v-7.5v-7.5v-12.5c0 -4.33301 -0.333008 -8.83301 -1 -13.5c-2 -37.333 -7.66699 -74.166 -17 -110.499s-19.333 -69.833 -30 -100.5l-8 -21.5l-8 -20.5l-95 -219h-157v0zM251.998 378.001
c19.333 1.33301 34.3301 14.168 44.9971 38.501s16.334 51.166 17.001 80.499v3v3c0 29.333 -5 55.833 -15 79.5s-25.667 36.5 -47 38.5h-0.5h-1.5h-1.5h-0.5c-22 0 -38.667 -12.833 -50 -38.5s-17 -54.167 -17 -85.5c0 -30.667 5.33301 -58.5 16 -83.5
s26.334 -37.5 47.001 -37.5h2c0.666992 0 1.33398 0.333008 2.00098 1h2h2v1z" />
    <glyph glyph-name="colon" unicode=":" 
d="M213 87v-3.5v-3.5c0.666992 -30.667 -8.33301 -53.167 -27 -67.5s-39.334 -21.833 -62.001 -22.5h-1.5h-1.5h-1.5h-1.5c-23.333 0 -44.833 7.5 -64.5 22.5s-29.5 37.167 -29.5 66.5v2v2v1v2c1.33301 30.667 11.333 53.167 30 67.5s39.334 21.5 62.001 21.5h1.5h1.5
c23.333 -0.666992 44.833 -8.66699 64.5 -24s29.5 -37 29.5 -65v1zM24 425c2 28 12.833 49.3311 32.5 63.998s40.834 22 63.501 22c21.333 0 41.166 -6.5 59.499 -19.5s29.5 -32.833 33.5 -59.5c0 -0.666992 0.166992 -1.66699 0.5 -3s0.5 -2.33301 0.5 -3v-3.5v-3.5
c0 -29.333 -10 -52 -30 -68s-42 -24 -66 -24h-1.5h-1.5c-22 0.666992 -42.333 8.83398 -61 24.501s-28.667 39.834 -30 72.501v1z" />
    <glyph glyph-name="semicolon" unicode=";" 
d="M63 165h150l-150 -307h-102l102 307v0zM24 425c2 27.333 12.8311 48.4971 32.498 63.4971s40.834 22.833 63.501 23.5c22.667 0 43.334 -7.66699 62.001 -23s29 -39.666 31 -72.999c0 -26 -9.83301 -47.167 -29.5 -63.5s-41.167 -25.166 -64.5 -26.499h-3.5h-2.5
c-22 -0.666992 -42 6.83301 -60 22.5s-27.667 40.834 -29 75.501v1z" />
    <glyph glyph-name="less" unicode="&#x3c;" horiz-adv-x="488" 
d="M16 307l449 221v-111l-331 -165l331 -158v-110l-449 221v102v0z" />
    <glyph glyph-name="equal" unicode="=" horiz-adv-x="488" 
d="M16 213h449v-111h-449v111v0zM465 291h-449v111h449v-111v0z" />
    <glyph glyph-name="greater" unicode="&#x3e;" horiz-adv-x="488" 
d="M8 425v110l457 -228v-102l-449 -221v110l330 158l-338 173v0z" />
    <glyph glyph-name="question" unicode="?" horiz-adv-x="457" 
d="M134 71c0 34 10.166 59.498 30.499 76.498s42.833 25.833 67.5 26.5h1.5h1.5c24 0.666992 46 -6.66602 66 -21.999s30 -37.666 30 -66.999v-2v-1v-2v-2c0 -30 -10.167 -52.167 -30.5 -66.5s-42.833 -21.833 -67.5 -22.5h-1.5h-1.5
c-23.333 0.666992 -44.666 7.66699 -63.999 21s-30 33.333 -32 60v1zM164.999 542.998l-140.997 -0.000976562c0 74.667 17.333 130 52 166s77.667 54 129 54c63.333 0 115.833 -20.333 157.5 -61s62.5 -88.667 62.5 -144c0 -50.667 -7.83301 -97.167 -23.5 -139.5
s-47.167 -69.166 -94.5 -80.499v-102h-150v189c6 -2.66699 12 -4.5 18 -5.5s11.333 -1.5 16 -1.5c14.667 0 27 4 37 12s18 19.333 24 34c3.33301 8.66699 6.5 20.167 9.5 34.5s4.5 29.5 4.5 45.5v4v4c-0.666992 18 -4.33398 35.167 -11.001 51.5s-18.334 27.5 -35.001 33.5
c-1.33301 0.666992 -2.83301 1.16699 -4.5 1.5s-3.5 0.5 -5.5 0.5c-2.66699 0 -5.33398 -0.333008 -8.00098 -1s-5.33398 -1.66699 -8.00098 -3c-7.33301 -3.33301 -14.166 -10.5 -20.499 -21.5s-9.5 -27.833 -9.5 -50.5v-10.5c0 -3.66699 0.333008 -7.16699 1 -10.5v1z" />
    <glyph glyph-name="at" unicode="@" horiz-adv-x="835" 
d="M709 402c0 -0.666992 0.00195312 -0.333008 0.00195312 1s0.333008 3.66602 1 6.99902v10v13c0 11.333 -0.666992 24.5 -2 39.5s-3.66602 30.167 -6.99902 45.5c-4 16 -9.66699 31.667 -17 47s-17.333 28.666 -30 39.999l-13.5 13.5c-9 9 -22.833 19.167 -41.5 30.5
c-18.667 10.667 -42.5 20.5 -71.5 29.5s-63.167 13.5 -102.5 13.5c-106 0 -180.667 -27.833 -224 -83.5s-71 -117.167 -83 -184.5c-0.666992 -6.66699 -1.5 -13.667 -2.5 -21s-1.5 -15 -1.5 -23c0 -16.667 1.33301 -34.334 4 -53.001s7.33398 -37.667 14.001 -57
c11.333 -35.333 29 -69.333 53 -102s56.667 -57.667 98 -75l40 -13.5c13.333 -4.33301 26.666 -7.83301 39.999 -10.5s26.666 -4.83398 39.999 -6.50098s26.666 -2.5 39.999 -2.5c36.667 0 72.167 6.83301 106.5 20.5s66.5 36.5 96.5 68.5l94 1
c0 -0.666992 -5.33301 -9.16699 -16 -25.5s-27.667 -34.5 -51 -54.5c-16.667 -14 -37 -27.667 -61 -41s-52 -23 -84 -29c-11.333 -2.66699 -25 -4.83398 -41 -6.50098s-33.333 -2.83398 -52 -3.50098c-20 0 -41.167 1.33301 -63.5 4s-44.833 7 -67.5 13
c-22.667 6.66699 -45.167 15.834 -67.5 27.501s-43.5 26.167 -63.5 43.5c-17.333 14.667 -32.5 30.167 -45.5 46.5s-24.167 32.5 -33.5 48.5c-18.667 32 -31.834 62.833 -39.501 92.5s-12.834 53.834 -15.501 72.501l-2 21.5c-0.666992 7 -1 14.5 -1 22.5
c0 18.667 1.66699 38.334 5 59.001s8.33301 41.334 15 62.001c20.667 65.333 60.834 125 120.501 179s144.834 81.333 255.501 82h20c6.66699 0 13.334 -0.333008 20.001 -1c7.33301 0 27.666 -3 60.999 -9s69 -20 107 -42c22.667 -14 45 -31.5 67 -52.5
s41 -46.833 57 -77.5c7.33301 -13.333 13.166 -27 17.499 -41s7.83301 -28.333 10.5 -43l2 -20.5c0.666992 -7 1 -14.167 1 -21.5c0 -58 -14.167 -111.5 -42.5 -160.5s-61.166 -82.167 -98.499 -99.5c-2 -1.33301 -6.5 -3.83301 -13.5 -7.5l-24.5 -12.5l-22 -8.5
c-8 -3 -16 -5.5 -24 -7.5c-4.66699 -1.33301 -9.33398 -2.33301 -14.001 -3s-9.33398 -1 -14.001 -1c-14 0 -26.167 4 -36.5 12s-16.166 22.667 -17.499 44c0 6 -3.83301 5.5 -11.5 -1.5s-18.167 -15.167 -31.5 -24.5c-10 -7.33301 -22 -14.166 -36 -20.499
s-29 -9.5 -45 -9.5h-2.5h-2.5h-2.5h-2.5c-5.33301 0 -10.666 0.333008 -15.999 1s-10.666 2 -15.999 4c-31.333 8.66699 -60 29.5 -86 62.5s-39 76.167 -39 129.5c0 9.33301 0.666992 18.833 2 28.5s3.66602 19.167 6.99902 28.5c12 43.333 36.167 82.833 72.5 118.5
s78.833 53.5 127.5 53.5h3h3h2.5h2.5c22 -2 39.667 -6.33301 53 -13s24.333 -13.667 33 -21c5.33301 -4 10 -8.16699 14 -12.5l11 -11.5c1.33301 -0.666992 2.5 -1.5 3.5 -2.5s2.16699 -1.83301 3.5 -2.5l8 56h95l-47 -307
c-0.666992 -3.33301 -1.33398 -6.16602 -2.00098 -8.49902s-1 -4.5 -1 -6.5c0 -4.66699 1 -8.16699 3 -10.5s5 -3.5 9 -3.5c6 0 13.333 2.33301 22 7s17.667 11.667 27 21c14 14 27 32.5 39 55.5s19 49.167 21 78.5v1zM504.002 394.001
c0 26.667 -4.50098 46.6699 -13.501 60.0029s-19.167 22.666 -30.5 27.999c-6 2 -11.833 3.5 -17.5 4.5s-10.5 1.5 -14.5 1.5h-5h-3c-1.33301 -0.666992 -2.16602 -1 -2.49902 -1h-0.5h-1.5h-0.5h-1.5h-1.5c-27.333 0.666992 -50.5 -11.833 -69.5 -37.5
s-30.833 -53.834 -35.5 -84.501c-0.666992 -4 -1.16699 -7.83301 -1.5 -11.5s-0.5 -7.5 -0.5 -11.5c0 -24.667 7 -47 21 -67s36.667 -30.667 68 -32c28 0 49.833 9.16699 65.5 27.5s27.167 38.166 34.5 59.499c3.33301 12 5.83301 23.5 7.5 34.5s2.5 20.5 2.5 28.5v1z" />
    <glyph glyph-name="A" unicode="A" horiz-adv-x="528" 
d="M173 756h158l181 -756h-158l-23 126h-150l-31 -126h-150l173 756v0zM197 236h110l-63 331l-47 -331v0z" />
    <glyph glyph-name="B" unicode="B" horiz-adv-x="480" 
d="M47 756h196.998c12 -0.666992 25.833 -3.5 41.5 -8.5s31.834 -13.5 48.501 -25.5c10.667 -7.33301 21 -16.166 31 -26.499s19.667 -22.166 29 -35.499s18 -31.666 26 -54.999s12 -48.333 12 -75v-7.5v-6.5c-2 -26.667 -9.33301 -52.334 -22 -77.001
s-34 -45.334 -64 -62.001c35.333 -16 61.333 -39.333 78 -70s25 -63.334 25 -98.001v-5.5v-5.5c-2.66699 -50 -21.667 -95.5 -57 -136.5s-84.666 -61.5 -147.999 -61.5h-197v756v0zM196.998 323l0.000976562 -205c2.66699 -1.33301 5.16699 -2 7.5 -2h7.5
c27.333 0 48.666 9.16699 63.999 27.5s23 43.5 23 75.5c0 26 -8 49.833 -24 71.5s-38 32.5 -66 32.5h-6c-2 0 -4 -0.333008 -6 -1v1zM196.999 622v-189.001c2 -1.33301 4.33301 -2.16602 7 -2.49902s5.33398 -0.5 8.00098 -0.5c4 0 8.16699 0.333008 12.5 1
s8.5 1.66699 12.5 3c13.333 4.66699 25.666 14.167 36.999 28.5s17 35.833 17 64.5c0 43.333 -7.83301 69.833 -23.5 79.5s-39.167 14.5 -70.5 14.5v1z" />
    <glyph glyph-name="C" unicode="C" horiz-adv-x="449" 
d="M425 740l0.000976562 -126.003c-6.66699 2 -15 3.83301 -25 5.5s-21 2.5 -33 2.5c-8.66699 0 -17.834 -0.5 -27.501 -1.5s-19.167 -3.16699 -28.5 -6.5c-22.667 -6 -44.5 -17.667 -65.5 -35s-37.167 -42.666 -48.5 -75.999c-5.33301 -15.333 -9.5 -32.666 -12.5 -51.999
s-4.5 -39.666 -4.5 -60.999c0 -6 0.166992 -12.333 0.5 -19s0.5 -13 0.5 -19c5.33301 -54.667 22.5 -104.667 51.5 -150s74.167 -68 135.5 -68c8.66699 0 17.667 0.5 27 1.5s19.333 2.83301 30 5.5v-133c-11.333 -5.33301 -23.833 -9.5 -37.5 -12.5
s-27.834 -4.5 -42.501 -4.5c-13.333 0 -27.166 1.16699 -41.499 3.5s-28.5 5.5 -42.5 9.5c-50 16.667 -97 49 -141 97s-73.667 113.667 -89 197c-2 12.667 -3.5 25.167 -4.5 37.5s-1.5 24.5 -1.5 36.5c0 56.667 8.5 109 25.5 157s36.833 86.667 59.5 116
c23.333 29.333 49.5 52.833 78.5 70.5s58.5 29.5 88.5 35.5c9.33301 2 18.666 3.5 27.999 4.5s18.333 1.5 27 1.5c16.667 0 32.834 -1.5 48.501 -4.5s30.5 -7.5 44.5 -13.5v1z" />
    <glyph glyph-name="D" unicode="D" horiz-adv-x="528" 
d="M47 756c9.33301 -0.666992 19.834 -0.999023 31.501 -0.999023h35.5h54.5h36.5c67.333 0 121.166 -15.5 161.499 -46.5s70.5 -68.167 90.5 -111.5c13.333 -29.333 24 -61 32 -95s12 -71 12 -111c0 -29.333 -2.33301 -60.833 -7 -94.5s-12 -69.834 -22 -108.501
c-11.333 -47.333 -39 -90.5 -83 -129.5s-105.333 -58.5 -184 -58.5h-158v756v0zM197.001 622.001l0.000976562 -496.001c59.333 2.66699 98.333 26.5 117 71.5s29 94.167 31 147.5c0.666992 6.66699 1 13.334 1 20.001v20v11.5v10.5c-2.66699 52 -14.334 99.667 -35.001 143
s-58.667 67 -114 71v1z" />
    <glyph glyph-name="E" unicode="E" horiz-adv-x="394" 
d="M47 0v756h307v-142h-149v-157h126v-150h-126v-165h149v-142h-307v0z" />
    <glyph glyph-name="F" unicode="F" horiz-adv-x="394" 
d="M47 756h307v-142h-157v-165h134v-142h-134v-307h-150v756v0z" />
    <glyph glyph-name="G" unicode="G" horiz-adv-x="567" 
d="M535 417c2 -14.667 3.50195 -28.6641 4.50195 -41.9971s1.5 -26.666 1.5 -39.999c0 -18.667 -0.666992 -36 -2 -52s-2.66602 -29.667 -3.99902 -41c-2 -12 -3.66699 -21.333 -5 -28l-2 -10l-7.5 -33.5c-5 -22.333 -15.167 -47.166 -30.5 -74.499
c-14 -23.333 -33 -45.166 -57 -65.499s-55.333 -33.166 -94 -38.499c-6.66699 -1.33301 -13 -2 -19 -2h-17c-90 -0.666992 -156.5 35 -199.5 107s-67.833 151.667 -74.5 239c-0.666992 7.33301 -1.16699 15 -1.5 23s-0.5 16 -0.5 24c0 12.667 0.333008 25 1 37
s1.66699 24 3 36c0 9.33301 2.83301 28.833 8.5 58.5s16.167 61.167 31.5 94.5c18 39.333 44.167 75.5 78.5 108.5s80.166 49.5 137.499 49.5c12.667 0 26 -1 40 -3s28.333 -5 43 -9c42.667 -12 74.167 -32.333 94.5 -61s38.166 -62 53.499 -100
c0.666992 -0.666992 1.16699 -1.33398 1.5 -2.00098s0.5 -1.33398 0.5 -2.00098l-142 -55c0 28.667 -8 51.667 -24 69s-34.333 26.333 -55 27c-2 0 -4 -0.166992 -6 -0.5s-4 -0.5 -6 -0.5c-14 -2.66699 -27.667 -9.83398 -41 -21.501s-24.333 -28.5 -33 -50.5
c-4.66699 -10.667 -8.5 -24.834 -11.5 -42.501s-5.5 -35.834 -7.5 -54.501c-2.66699 -29.333 -4.16699 -56 -4.5 -80l-0.5 -36c0.666992 -2 1.16699 -4.83301 1.5 -8.5s0.833008 -8.16699 1.5 -13.5l2.5 -39.5c1 -15.667 2.83301 -31.5 5.5 -47.5
c5.33301 -26.667 14.666 -51.334 27.999 -74.001s34.333 -35 63 -37c31.333 0 55.333 13.167 72 39.5s27 63.166 31 110.499l-103 1v141h244v0z" />
    <glyph glyph-name="H" unicode="H" horiz-adv-x="551" 
d="M55 756h150v-299h149v299h150v-756h-142v315h-157v-315h-150v756v0z" />
    <glyph glyph-name="I" unicode="I" horiz-adv-x="252" 
d="M55 756h142v-756h-142v756v0z" />
    <glyph glyph-name="J" unicode="J" horiz-adv-x="354" 
d="M150 756l149 -0.00195312v-583c0 -5.33301 -0.166992 -10.333 -0.5 -15s-0.833008 -9.33398 -1.5 -14.001c-3.33301 -31.333 -14 -61.166 -32 -89.499s-46 -49.166 -84 -62.499c-4.66699 -2 -9.5 -3.66699 -14.5 -5l-14.5 -4
c-5.33301 -0.666992 -10.5 -1.16699 -15.5 -1.5s-9.83301 -0.5 -14.5 -0.5c-15.333 0 -29.833 1.33301 -43.5 4s-25.834 5.66699 -36.501 9l-25 9.5l-9 3.5v150c8 -11.333 17.833 -21.166 29.5 -29.499s23.834 -13.5 36.501 -15.5c2 0 4 -0.166992 6 -0.5s4 -0.5 6 -0.5
c17.333 -0.666992 32.333 7 45 23s19 44.333 19 85v537v0z" />
    <glyph glyph-name="K" unicode="K" horiz-adv-x="512" 
d="M47 756h150v-347l126 347h157l-141 -362l157 -394h-157l-142 370v-370h-150v756v0z" />
    <glyph glyph-name="L" unicode="L" horiz-adv-x="370" 
d="M39 756h150v-614h173v-142h-323v756v0z" />
    <glyph glyph-name="M" unicode="M" horiz-adv-x="724" 
d="M79 756h197l70 -465l63 465h197l87 -756h-158l-39 528l-87 -528h-118l-94 528l-32 -528h-157l71 756v0z" />
    <glyph glyph-name="N" unicode="N" horiz-adv-x="575" 
d="M39 756h150l173 -465v465h142v-756h-134l-181 449v-449h-150v756v0z" />
    <glyph glyph-name="O" unicode="O" horiz-adv-x="583" 
d="M276 756c2 -0.666992 3.99805 -1.00195 5.99805 -1.00195h7c4 0 8.16699 -0.166992 12.5 -0.5s8.83301 -0.833008 13.5 -1.5c56.667 -7.33301 108.834 -42.166 156.501 -104.499s71.5 -160.833 71.5 -295.5c0 -19.333 -1.5 -44.166 -4.5 -74.499s-9.5 -61.5 -19.5 -93.5
c-14 -47.333 -37.833 -90.833 -71.5 -130.5s-83.167 -63.167 -148.5 -70.5h-3c-1.33301 0 -2.66602 -0.333008 -3.99902 -1h-3h-4c-14 0 -29 1.83301 -45 5.5s-32 9.16699 -48 16.5c-39.333 19.333 -76 54.333 -110 105s-53.333 124 -58 220v13.5
c0 4.33301 -0.333008 8.83301 -1 13.5c0 108 21.333 200.333 64 277s105.667 117 189 121v1zM282.998 621.998c-30 -3.33301 -52.1689 -18.832 -66.502 -46.499s-23.833 -58.167 -28.5 -91.5c-3.33301 -22 -5.33301 -43.5 -6 -64.5s-1 -37.833 -1 -50.5
c-0.666992 -3.33301 -1 -7 -1 -11v-12c0 -12.667 0.833008 -26.667 2.5 -42s4.16699 -31.333 7.5 -48c7.33301 -34.667 18.833 -66.334 34.5 -95.001s35.834 -43.334 60.501 -44.001h3.5h2.5c31.333 4 56.333 26.333 75 67s28 102.334 28 185.001
c0 10 -0.166992 20.333 -0.5 31s-0.833008 21.334 -1.5 32.001c-3.33301 47.333 -12.666 90.666 -27.999 129.999s-42.333 59 -81 59v1z" />
    <glyph glyph-name="P" unicode="P" horiz-adv-x="488" 
d="M47 756l205.001 -0.000976562c73.333 -0.666992 124.666 -19 153.999 -55s46.333 -75.667 51 -119c0.666992 -6.66699 1.16699 -13 1.5 -19s0.5 -12 0.5 -18c0 -22 -1.66699 -42.5 -5 -61.5s-7 -35.167 -11 -48.5c-1.33301 -6 -3 -11.333 -5 -16
s-3.66699 -8.33398 -5 -11.001c-12.667 -21.333 -28.167 -38.666 -46.5 -51.999s-36.833 -23.666 -55.5 -30.999c-22.667 -8.66699 -44.167 -14.167 -64.5 -16.5s-36.833 -3.5 -49.5 -3.5h-8c-2.66699 0 -4.66699 0.333008 -6 1h-4.5h-1.5v-306h-150v756v0zM197.001 629.999
l-0.000976562 -205c31.333 -0.666992 58.833 6.33301 82.5 21s35.5 41.667 35.5 81c0 34 -10.167 59.5 -30.5 76.5s-42.833 25.833 -67.5 26.5h-1.5h-1.5h-4h-4c-2 0 -3.66699 -0.166992 -5 -0.5s-2.66602 -0.5 -3.99902 -0.5v1z" />
    <glyph glyph-name="Q" unicode="Q" horiz-adv-x="583" 
d="M24 465c9.33301 75.333 28.498 133.334 57.498 174.001s59.833 70 92.5 88c20 10.667 39.5 18 58.5 22s35.833 6 50.5 6s32.167 -1.83301 52.5 -5.5s41.166 -10.5 62.499 -20.5c32 -15.333 61.833 -40.5 89.5 -75.5s46.167 -85.167 55.5 -150.5
c4 -24.667 7 -49.334 9 -74.001s3 -49 3 -73c0.666992 -48.667 -3.66602 -94.667 -12.999 -138s-24.666 -82.333 -45.999 -117l63 -62l-71 -70l-63 62c-16 -16.667 -36 -29 -60 -37s-49.667 -12 -77 -12c-5.33301 0 -10.5 0.166992 -15.5 0.5s-10.167 0.833008 -15.5 1.5
c-27.333 3.33301 -54.166 11.333 -80.499 24s-48.5 30.667 -66.5 54c-26.667 33.333 -48.167 76.5 -64.5 129.5s-24.833 115.833 -25.5 188.5c0 13.333 0.5 27 1.5 41s1.83301 28.333 2.5 43v1zM393.998 378.001c0 12 -0.333984 25.3291 -1.00098 39.9961
s-2 29.334 -4 44.001c-4.66699 40 -14.167 76.5 -28.5 109.5s-37.5 49.5 -69.5 49.5c-41.333 0 -69.166 -21 -83.499 -63s-22.166 -88.333 -23.499 -139v-11.5v-11.5c0 -16.667 0.333008 -33.167 1 -49.5s1.33398 -31.5 2.00098 -45.5
c0.666992 -4.66699 1.16699 -9.16699 1.5 -13.5s0.5 -8.5 0.5 -12.5c0 -5.33301 0.166992 -10.666 0.5 -15.999s0.833008 -10.666 1.5 -15.999c4.66699 -31.333 15.167 -60 31.5 -86s37.5 -39 63.5 -39c7.33301 0 14.666 1.33301 21.999 4s15 6.33398 23 11.001l-95 95
l71 71l79 -79c1.33301 8 2.33301 17.333 3 28l2 32c1.33301 24 2.16602 46.167 2.49902 66.5l0.5 30.5v1z" />
    <glyph glyph-name="R" unicode="R" horiz-adv-x="528" 
d="M47 756h189c67.333 -0.666992 123.5 -21 168.5 -61s67.5 -93.667 67.5 -161c0 -16 -2.66699 -38 -8 -66s-24 -57 -56 -87c-6 -6 -12.833 -12 -20.5 -18s-16.167 -12 -25.5 -18l134 -345h-157l-134 354v-354h-158v756v0zM197 630l0.000976562 -205.001
c1.33301 -0.666992 2.5 -1 3.5 -1h3.5h3.5h3.5c32 0 55.667 5.33301 71 16s26.333 22.334 33 35.001c3.33301 8 5.66602 15.833 6.99902 23.5s2 13.834 2 18.501v4v3c-0.666992 1.33301 -1 2.16602 -1 2.49902v0.5v2.5v2.5v2.5v2.5
c0.666992 28.667 -5.66602 49.667 -18.999 63s-28 22 -44 26c-6.66699 2 -13.334 3.33301 -20.001 4s-12.667 1 -18 1c-4 0 -7.5 -0.166992 -10.5 -0.5s-5.5 -0.5 -7.5 -0.5s-3.66699 -0.166992 -5 -0.5l-2 -0.5v1z" />
    <glyph glyph-name="S" unicode="S" horiz-adv-x="441" 
d="M63 24l-0.00390625 149c10.667 -11.333 22.334 -20.5 35.001 -27.5s25.667 -11.833 39 -14.5c4.66699 -1.33301 9.5 -2.33301 14.5 -3s9.83301 -1 14.5 -1c24 0 45 6.66699 63 20s28.333 32.333 31 57v3.5v3.5c0 19.333 -7.33301 37 -22 53s-31 30.333 -49 43
c-12.667 9.33301 -24.834 17.833 -36.501 25.5s-20.5 14.5 -26.5 20.5c-31.333 25.333 -54.5 54.5 -69.5 87.5s-22.5 67.167 -22.5 102.5c0 7.33301 0.333008 14.5 1 21.5l2 21.5c1.33301 7.33301 2.83301 14.5 4.5 21.5s3.5 14.167 5.5 21.5c13.333 42 36.333 74 69 96
s69.334 33 110.001 33c10.667 0 21.334 -0.666992 32.001 -2s21.334 -3.33301 32.001 -6c10.667 -3.33301 21.334 -7.16602 32.001 -11.499s21.334 -9.5 32.001 -15.5v-140c-20 16 -38.833 27.5 -56.5 34.5s-33.5 10.833 -47.5 11.5c-23.333 0 -41.666 -7.33301 -54.999 -22
s-20 -31.667 -20 -51c0 -2.66699 0.166992 -5.16699 0.5 -7.5s0.833008 -4.83301 1.5 -7.5c0.666992 -5.33301 2.16699 -10.5 4.5 -15.5s4.83301 -9.83301 7.5 -14.5c10.667 -16 23.667 -30.5 39 -43.5s31.333 -25.833 48 -38.5c1.33301 -1.33301 2.66602 -2.5 3.99902 -3.5
s2.66602 -1.83301 3.99902 -2.5l20 -14.5c6.66699 -5 13 -10.167 19 -15.5c27.333 -22.667 48.166 -48.834 62.499 -78.501s21.5 -61.167 21.5 -94.5c0.666992 -14 -0.333008 -28.5 -3 -43.5s-7 -30.167 -13 -45.5l-6 -14.5c-2 -5 -4.33301 -10.167 -7 -15.5
c-16 -32 -39.667 -58.833 -71 -80.5s-68.666 -32.5 -111.999 -32.5c-20 0 -41 2.66699 -63 8s-45 14.333 -69 27v1z" />
    <glyph glyph-name="T" unicode="T" horiz-adv-x="417" 
d="M8 756h394v-150h-119v-606h-157v606h-118v150v0z" />
    <glyph glyph-name="U" unicode="U" horiz-adv-x="543" 
d="M47 756h141.998v-536c0 -43.333 8.5 -71.333 25.5 -84s37.5 -19 61.5 -19c30.667 0 48.834 7.5 54.501 22.5s8.5 31.167 8.5 48.5v3v3v5v5v552h141v-567v-4.5v-3.5v-3.5v-3.5c0 -58 -11.167 -100.333 -33.5 -127s-47.166 -44 -74.499 -52
c-17.333 -5.33301 -34.166 -8.5 -50.499 -9.5s-29.5 -1.5 -39.5 -1.5h-3.5h-2.5h-2.5h-3.5c-12 0 -26.833 0.5 -44.5 1.5s-35.834 4.83301 -54.501 11.5c-30 9.33301 -57.5 29.333 -82.5 60s-38.833 79.667 -41.5 147v552v0z" />
    <glyph glyph-name="V" unicode="V" horiz-adv-x="567" 
d="M8 756h165l118 -496l111 496h157l-205 -756h-126l-220 756v0z" />
    <glyph glyph-name="W" unicode="W" horiz-adv-x="795" 
d="M0 756h165l71 -512l95 512h126l94 -512l71 512h165l-157 -756h-134l-94 535l-111 -535h-134l-157 756v0z" />
    <glyph glyph-name="X" unicode="X" horiz-adv-x="543" 
d="M24 756h173l79 -213l70 213h166l-158 -370l174 -386h-182l-78 228l-71 -228h-173l165 386l-165 370v0z" />
    <glyph glyph-name="Y" unicode="Y" horiz-adv-x="512" 
d="M0 756h173l87 -244l79 244h173l-181 -386v-370h-150v370l-181 386v0z" />
    <glyph glyph-name="Z" unicode="Z" horiz-adv-x="512" 
d="M47 614v142h449l-260 -614h244v-142h-464l252 614h-221v0z" />
    <glyph glyph-name="bracketleft" unicode="[" horiz-adv-x="323" 
d="M55 764h252v-95h-126v-700h126v-95h-252v890v0z" />
    <glyph glyph-name="backslash" unicode="\" horiz-adv-x="252" 
d="M-87 756h111l330 -756h-110l-331 756v0z" />
    <glyph glyph-name="bracketright" unicode="]" horiz-adv-x="323" 
d="M8 646v102h260v-882h-260v110h126v670h-126v0z" />
    <glyph glyph-name="asciicircum" unicode="^" horiz-adv-x="488" 
d="M118 323l-94 55l165 378h110l173 -378l-102 -55l-126 291l-126 -291v0z" />
    <glyph glyph-name="underscore" unicode="_" horiz-adv-x="504" 
d="M0 -110h496v-79h-496v79v0z" />
    <glyph glyph-name="grave" unicode="`" horiz-adv-x="299" 
d="M47 717l103 47l102 -150l-79 -39l-126 142v0z" />
    <glyph glyph-name="a" unicode="a" horiz-adv-x="433" 
d="M260 496l133.999 -0.000976562v-496h-134v55c-11.333 -17.333 -23.5 -30.833 -36.5 -40.5s-26.167 -16.5 -39.5 -20.5l-11.5 -2c-3.66699 -0.666992 -7.5 -1 -11.5 -1c-34 -0.666992 -64.167 20.333 -90.5 63s-39.5 108.334 -39.5 197.001c0 86.667 12 150 36 190
s50.333 62.667 79 68c2.66699 0.666992 5.16699 1.16699 7.5 1.5s4.83301 0.5 7.5 0.5c22 0 42.333 -8 61 -24s31.334 -37 38.001 -63v72v0zM219.999 385.999c-20 -4 -34.334 -18.832 -43.001 -44.499s-13 -53.834 -13 -84.501v-5.5v-5.5c1.33301 -34 7 -65.333 17 -94
s23 -43 39 -43c17.333 0 30.833 14.667 40.5 44s14.834 61.333 15.501 96v3.5v2.5c0.666992 33.333 -3.33301 63.333 -12 90s-22 40 -40 40h-2h-2v1z" />
    <glyph glyph-name="b" unicode="b" horiz-adv-x="433" 
d="M39 803l142.002 -0.000976562v-354c8 18.667 20.833 35 38.5 49s36.5 21 56.5 21c50.667 0 87.667 -25 111 -75s35.333 -106.333 36 -169v-10.5v-11.5c-3.33301 -65.333 -18.333 -125.166 -45 -179.499s-63.334 -81.5 -110.001 -81.5c-18.667 0 -34.334 4 -47.001 12
s-24.667 22 -36 42l-2 4l-2 4v-54h-142v803v0zM220.002 393.999c0 -0.666992 -0.167969 -1 -0.500977 -1h-0.5h-0.5h-0.5c-15.333 0 -27.833 -14.5 -37.5 -43.5s-15.167 -60.5 -16.5 -94.5v-8v-8c0 -31.333 4 -59.5 12 -84.5s21.333 -37.5 40 -37.5h0.5h1.5h1.5h0.5
c17.333 0 30.833 14.667 40.5 44s14.834 61.333 15.501 96v3.5v2.5c0.666992 33.333 -3.33301 63.333 -12 90s-22 40 -40 40h-2h-2v1z" />
    <glyph glyph-name="c" unicode="c" horiz-adv-x="315" 
d="M299 134l0.000976562 -126c-16.667 -8.66699 -32.5 -15 -47.5 -19s-29.167 -6 -42.5 -6c-56 0 -99 27.333 -129 82s-45.333 115.334 -46 182.001v2.5v3.5c0.666992 65.333 17 125.333 49 180s81.333 82 148 82c11.333 0 23.333 -1 36 -3s26 -5 40 -9v-125
c-8.66699 5.33301 -17.167 9.33301 -25.5 12s-16.166 4 -23.499 4c-26 0 -45.5 -14.833 -58.5 -44.5s-19.5 -62.167 -19.5 -97.5c-0.666992 -34.667 5.16602 -66.334 17.499 -95.001s30.166 -43 53.499 -43c7.33301 0 15 1.5 23 4.5s16.333 7.83301 25 14.5v1z" />
    <glyph glyph-name="d" unicode="d" horiz-adv-x="433" 
d="M260 803l142 0.000976562v-803h-150v55c-13.333 -20.667 -28.5 -36.334 -45.5 -47.001s-34.167 -16 -51.5 -16c-32.667 0 -62.667 22.5 -90 67.5s-41 119.167 -41 222.5c0 73.333 14 131.333 42 174s59.333 64 94 64c2 0 4.16699 -0.166992 6.5 -0.5s4.5 -0.5 6.5 -0.5
c15.333 -2.66699 30.5 -9.66699 45.5 -21s28.833 -28 41.5 -50v355v0zM220 394.001c-20.667 -0.666992 -36.167 -15.002 -46.5 -43.002s-15.5 -59 -15.5 -93c0 -34.667 5 -66.667 15 -96s24.333 -44.333 43 -45h2.5h1.5c19.333 2 33.5 16.833 42.5 44.5
s13.5 57.834 13.5 90.501v1.5v1.5c0 34.667 -4.83301 66.334 -14.5 95.001s-23.5 43 -41.5 43v1z" />
    <glyph glyph-name="e" unicode="e" horiz-adv-x="417" 
d="M268 157l118.003 0.000976562v-3.5c0 -1 0.333008 -2.16699 1 -3.5v-2.5v-3.5c0 -6 -0.5 -12.167 -1.5 -18.5s-2.5 -12.833 -4.5 -19.5c-8.66699 -29.333 -25.834 -56.166 -51.501 -80.499s-56.834 -38.166 -93.501 -41.499h-4
c-1.33301 0 -2.66602 -0.333008 -3.99902 -1h-4h-4c-64.667 0 -112.834 26.667 -144.501 80s-47.5 113 -47.5 179v4v5c0.666992 66.667 17.334 128 50.001 184s80 84 142 84c52.667 0 95.5 -17.833 128.5 -53.5s49.5 -94.167 49.5 -175.5
c0 -10.667 -0.333008 -21.834 -1 -33.501s-1.66699 -24.167 -3 -37.5l-229 1c-0.666992 -5.33301 -1 -10 -1 -14v-11c-0.666992 -32.667 4.66602 -56.834 15.999 -72.501s24 -24.834 38 -27.501h2.5h2.5c11.333 0 21.666 4.66699 30.999 14s14 22.333 14 39v2v2v2v2v1z
M165.003 307.001l110.998 -0.00390625c0.666992 2.66699 1 5.83398 1 9.50098v10.5c0.666992 27.333 -4.66602 48.333 -15.999 63s-23.666 22.334 -36.999 23.001h-1.5h-1.5c-14 -1.33301 -26.833 -10.666 -38.5 -27.999s-17.5 -43.666 -17.5 -78.999v1z" />
    <glyph glyph-name="f" unicode="f" horiz-adv-x="299" 
d="M79 504v173.001v1.5v2.5v2.5v2.5c-0.666992 40.667 10.833 71.5 34.5 92.5s49.5 33.5 77.5 37.5c4 0.666992 7.83301 1.16699 11.5 1.5s7.5 0.5 11.5 0.5c11.333 0 22.333 -1.33301 33 -4s20.334 -6.66699 29.001 -12v-125c-6 2 -11.333 3.5 -16 4.5s-9 1.5 -13 1.5
c-12 0.666992 -20.333 -3.33301 -25 -12s-7.33398 -18.334 -8.00098 -29.001c-0.666992 -2 -1 -4.16699 -1 -6.5v-6.5v-125h63v-110h-63v-394h-134v394h-55v110h55v0z" />
    <glyph glyph-name="g" unicode="g" horiz-adv-x="433" 
d="M260 55c-11.333 -21.333 -23.832 -37.498 -37.499 -48.498s-27.167 -18.167 -40.5 -21.5c-2.66699 0 -5.16699 -0.166992 -7.5 -0.5s-4.5 -0.5 -6.5 -0.5c-34.667 0 -66.167 23.667 -94.5 71s-42.5 112 -42.5 194v9.5v8.5c0 68 13.667 125.833 41 173.5
s58.333 71.834 93 72.501c4 0 8 -0.333008 12 -1s8 -1.66699 12 -3c12 -4.66699 24 -12.5 36 -23.5s23.667 -26.167 35 -45.5v64h134v-583c0 -55.333 -18.5 -97.833 -55.5 -127.5s-77.5 -45.834 -121.5 -48.501h-5.5h-5.5c-42.667 0 -81.334 13.167 -116.001 39.5
s-52 67.166 -52 122.499v10.5c0 3.66699 0.333008 7.5 1 11.5h111c1.33301 -26 7.5 -44.833 18.5 -56.5s22.833 -17.834 35.5 -18.501c14 0 26.833 6 38.5 18s17.5 28.333 17.5 49v134v0zM220.001 118.002c0.666992 -0.666992 1.16504 -1.00195 1.49805 -1.00195h1.5
c16.667 -0.666992 29.5 13.166 38.5 41.499s13.833 59.5 14.5 93.5v1.5v1.5c0 34.667 -4.83301 66.334 -14.5 95.001s-24.5 43 -44.5 43h-0.5h-1.5h-1.5h-0.5c-15.333 -2 -27.166 -17.167 -35.499 -45.5s-13.166 -59.166 -14.499 -92.499v-2.5v-3.5
c0 -33.333 4.33301 -63.666 13 -90.999s22 -41 40 -41h2.5h1.5v1z" />
    <glyph glyph-name="h" unicode="h" horiz-adv-x="425" 
d="M173 425c10 24 24.332 43.667 42.999 59s38 25.333 58 30c3.33301 0.666992 6.83301 1.16699 10.5 1.5s7.16699 0.5 10.5 0.5c24 0 45.167 -9.16699 63.5 -27.5s27.5 -47.5 27.5 -87.5v-401h-134v315c0 20 -3.66699 34.667 -11 44s-15.666 14 -24.999 14h-1.5h-1.5
c-10 -0.666992 -19.167 -6.16699 -27.5 -16.5s-12.5 -24.5 -12.5 -42.5v-314h-134v803h134v-378v0z" />
    <glyph glyph-name="i" unicode="i" horiz-adv-x="213" 
d="M31 504h142v-504h-142v504v0zM102 740c0.666992 -0.666992 1.33496 -1 2.00195 -1h2h1h2c26 0 46 -8.83301 60 -26.5s21.333 -36.834 22 -57.501v-1.5v-1.5c0 -21.333 -7.16699 -41 -21.5 -59s-36.833 -27 -67.5 -27c-30 0 -52.5 8.83301 -67.5 26.5
s-22.833 36.834 -23.5 57.501v1.5v1.5c-0.666992 21.333 6.16602 41 20.499 59s35.166 27 62.499 27h2h2h2h2v1z" />
    <glyph glyph-name="j" unicode="j" horiz-adv-x="213" 
d="M31 -244v748h142v-748h-142v0zM8 661c2 29.333 13.166 51.832 33.499 67.499s42.5 23.5 66.5 23.5c23.333 0 44.833 -7.5 64.5 -22.5s30.5 -38.167 32.5 -69.5v-3v-4c0.666992 -29.333 -9.16602 -51.666 -29.499 -66.999s-42.833 -23 -67.5 -23s-47.5 8 -68.5 24
s-31.5 40.333 -31.5 73v1z" />
    <glyph glyph-name="k" unicode="k" horiz-adv-x="441" 
d="M39 0v803h142v-480l79 181h149l-118 -213l150 -291h-165l-95 228v-228h-142v0z" />
    <glyph glyph-name="l" unicode="l" horiz-adv-x="213" 
d="M31 0v803h142v-803h-142v0z" />
    <glyph glyph-name="m" unicode="m" horiz-adv-x="638" 
d="M31 0l0.00292969 504.002h142v-95c11.333 25.333 25 45.666 41 60.999s32.333 26.333 49 33c5.33301 2 10.833 3.5 16.5 4.5s11.167 1.5 16.5 1.5c23.333 0 43.666 -8.66699 60.999 -26s27 -42.333 29 -75c9.33301 25.333 22.666 46.666 39.999 63.999
s35.666 28.666 54.999 33.999c4 1.33301 8 2.33301 12 3s8 1 12 1c23.333 0 43.5 -11 60.5 -33s25.5 -58 25.5 -108v-369h-134v331c0 12 -3.16699 21.333 -9.5 28s-13.5 10 -21.5 10h-2.5h-2.5c-8.66699 -1.33301 -16.667 -6.5 -24 -15.5s-11 -22.167 -11 -39.5v-314h-142
v331c0 12 -3.16699 21.333 -9.5 28s-13.5 10 -21.5 10h-2.5h-2.5c-8.66699 -2 -16.667 -8.16699 -24 -18.5s-11 -25.166 -11 -44.499v-306h-142v0z" />
    <glyph glyph-name="n" unicode="n" horiz-adv-x="425" 
d="M31 0l0.000976562 503.998h150v-71c7.33301 22.667 21.166 42.167 41.499 58.5s41.833 26.5 64.5 30.5c2.66699 0 5.5 0.166992 8.5 0.5s5.83301 0.5 8.5 0.5c23.333 0 44.166 -9.33301 62.499 -28s27.5 -50 27.5 -94v-401h-150v346c0 11.333 -2.5 19.833 -7.5 25.5
s-11.167 8.83398 -18.5 9.50098h-3.5c-1 0 -2.16699 -0.333008 -3.5 -1c-7.33301 -2 -14.166 -6.66699 -20.499 -14s-9.5 -16.666 -9.5 -27.999v-338h-150v0z" />
    <glyph glyph-name="o" unicode="o" horiz-adv-x="433" 
d="M31 268c0 94 18.833 160.667 56.5 200s81.834 59 132.501 59c55.333 0 102 -20.667 140 -62s57 -107.333 57 -198c-4 -98.667 -22.333 -170.5 -55 -215.5s-82.334 -67.5 -149.001 -67.5c-51.333 0 -94.5 21.5 -129.5 64.5s-52.5 115.833 -52.5 218.5v1zM220 394
c-16.667 -0.666992 -29.1689 -15.001 -37.502 -43.001s-12.5 -59 -12.5 -93v-4v-4c0.666992 -35.333 5.33398 -67.666 14.001 -96.999s20.667 -44 36 -44s27.333 14.833 36 44.5s13.334 62.167 14.001 97.5v3.5v2.5c0 34.667 -4 66 -12 94s-20.667 42 -38 42v1z" />
    <glyph glyph-name="p" unicode="p" horiz-adv-x="433" 
d="M31 -236v740h150v-55l0.5 0.5c0.333008 0.333008 0.5 0.833008 0.5 1.5c8.66699 18 20.5 34.5 35.5 49.5s32.833 22.5 53.5 22.5c10 0 20.667 -2.16699 32 -6.5s23.333 -11.5 36 -21.5c23.333 -19.333 41.333 -50 54 -92s19 -87.667 19 -137
c0 -7.33301 -0.166992 -14.833 -0.5 -22.5s-0.833008 -15.167 -1.5 -22.5c-2.66699 -34 -8.5 -67.667 -17.5 -101s-21.833 -63.333 -38.5 -90c-8.66699 -14.667 -20.334 -25.667 -35.001 -33s-30 -11 -46 -11h-2h-2c-19.333 0.666992 -37.666 6.66699 -54.999 18
s-28.333 28 -33 50v-290h-150v0zM213 394c-16.667 -0.666992 -29.167 -14.833 -37.5 -42.5s-12.5 -58.834 -12.5 -93.501v-4v-4c0.666992 -35.333 5.16699 -67.666 13.5 -96.999s20.5 -44 36.5 -44s28.333 15 37 45s13 63 13 99v1.5v1.5c0 34.667 -4 66.167 -12 94.5
s-20.667 42.5 -38 42.5v1z" />
    <glyph glyph-name="q" unicode="q" horiz-adv-x="433" 
d="M260 55c-10 -19.333 -21.501 -33.833 -34.501 -43.5s-26.5 -16.167 -40.5 -19.5c-3.33301 -1.33301 -7 -2.16602 -11 -2.49902s-7.66699 -0.5 -11 -0.5c-14 0 -27.167 3 -39.5 9s-22.166 14.333 -29.499 25c-21.333 26.667 -36.833 58 -46.5 94s-15.167 72.667 -16.5 110
v9v9c0 57.333 7.16699 110.666 21.5 159.999s30.833 82 49.5 98c10 8.66699 20.167 15 30.5 19s20.833 6.33301 31.5 7c19.333 0 37.5 -7.16699 54.5 -21.5s30.833 -36.833 41.5 -67.5v64h142v-732h-142v283v0zM219.999 394c-16.667 -0.666992 -29.1689 -14.667 -37.502 -42
s-12.5 -57.666 -12.5 -90.999v-2.5v-3.5c0.666992 -34.667 5.33398 -66.334 14.001 -95.001s20.667 -43 36 -43s27.333 14.333 36 43s13.334 60.334 14.001 95.001v3.5v2.5c0 33.333 -4 63.666 -12 90.999s-20.667 41 -38 41v1z" />
    <glyph glyph-name="r" unicode="r" horiz-adv-x="315" 
d="M39 0l-0.00195312 504.001h142v-63l0.5 1l1.5 3c8.66699 18.667 22.667 36.334 42 53.001s44 28.667 74 36v-148c-5.33301 2.66699 -11.166 4.66699 -17.499 6s-12.833 2 -19.5 2h-1.5h-1.5c-19.333 -0.666992 -37.166 -10.334 -53.499 -29.001
s-24.5 -51.334 -24.5 -98.001v-267h-142v0z" />
    <glyph glyph-name="s" unicode="s" horiz-adv-x="378" 
d="M94 142c2 -2.66699 4 -4.83594 6 -6.50293s4.33301 -3.5 7 -5.5c10 -8 20.167 -14 30.5 -18s19.833 -6 28.5 -6c13.333 0 24.5 3.83301 33.5 11.5s13.5 18.167 13.5 31.5c0 11.333 -3.83301 20.833 -11.5 28.5s-17.167 14.834 -28.5 21.501
c-6.66699 4 -13.667 7.83301 -21 11.5s-14.666 7.83398 -21.999 12.501c-20.667 13.333 -39.667 30.666 -57 51.999s-26 52.666 -26 93.999c0 42.667 15.333 77.667 46 105s68.667 41 114 41c21.333 0 43.833 -3.5 67.5 -10.5s47.5 -18.167 71.5 -33.5l-55 -101
c-12.667 10.667 -25 18.834 -37 24.501s-22.667 8.5 -32 8.5c-10 0.666992 -18 -2.5 -24 -9.5s-9 -17.833 -9 -32.5c0 -7.33301 2.66699 -13.833 8 -19.5s12.333 -11.167 21 -16.5l23.5 -13l26.5 -15c19.333 -12 37.166 -28.667 53.499 -50s24.5 -51.666 24.5 -90.999
c0 -60.667 -16.667 -104.167 -50 -130.5s-70 -40.166 -110 -41.499h-3.5h-2.5c-28.667 0 -56 5.5 -82 16.5s-45.667 26.167 -59 45.5l55 96v0z" />
    <glyph glyph-name="t" unicode="t" horiz-adv-x="307" 
d="M71 0v386h-47v118h47v142h149v-142h56v-118h-56v-386h-149v0z" />
    <glyph glyph-name="u" unicode="u" horiz-adv-x="425" 
d="M31 504l150 0.00195312v-331c0 -18.667 3.33301 -32.334 10 -41.001s14 -13 22 -13c7.33301 0 14.333 4.33301 21 13s10 22 10 40v332h150v-331c0 -62 -19 -108.833 -57 -140.5s-79.667 -47.834 -125 -48.501h-1.5h-1.5c-44.667 0 -85.5 15.333 -122.5 46
s-55.5 78 -55.5 142v332v0z" />
    <glyph glyph-name="v" unicode="v" horiz-adv-x="449" 
d="M157 0l-141 504h141l71 -291l63 291h150l-150 -504h-134v0z" />
    <glyph glyph-name="w" unicode="w" horiz-adv-x="693" 
d="M157 0l-141 504h141l63 -307l71 307h118l63 -307l71 307h142l-142 -504h-126l-39 157l-32 150l-23 -150l-40 -157h-126v0z" />
    <glyph glyph-name="x" unicode="x" horiz-adv-x="488" 
d="M16 0l157 276l-126 228h142l55 -102l55 102h150l-134 -236l150 -268h-150l-71 142l-79 -142h-149v0z" />
    <glyph glyph-name="y" unicode="y" horiz-adv-x="449" 
d="M157 16l-141 488h141l63 -291l71 291h142l-220 -756h-142l86 268v0z" />
    <glyph glyph-name="z" unicode="z" horiz-adv-x="402" 
d="M16 0l157 378h-142v126h347l-158 -386h142v-118h-346v0z" />
    <glyph glyph-name="braceleft" unicode="{" horiz-adv-x="299" 
d="M134 315c27.333 -0.666992 49.832 -10.833 67.499 -30.5s26.5 -49.167 26.5 -88.5v-172c0 -23.333 8 -40.833 24 -52.5s33.333 -17.834 52 -18.501h1.5h1.5v-79h-94c-31.333 0 -59 9.5 -83 28.5s-36 46.167 -36 81.5v142c0 62.667 -5.16699 102.167 -15.5 118.5
s-31.166 26.5 -62.499 30.5v71c23.333 -0.666992 42.166 8 56.499 26s21.5 40.667 21.5 68v206c0 30.667 11.333 55.167 34 73.5s53.334 27.5 92.001 27.5l87 1v-79c-27.333 -4.66699 -47.333 -12.167 -60 -22.5s-19 -29.166 -19 -56.499v-188
c0 -32 -9.83301 -54.667 -29.5 -68s-41.167 -20 -64.5 -20v1z" />
    <glyph glyph-name="bar" unicode="|" horiz-adv-x="252" 
d="M71 0v803h110v-803h-110v0z" />
    <glyph glyph-name="braceright" unicode="}" horiz-adv-x="299" 
d="M165 315c-31.333 -0.666992 -54.833 10.833 -70.5 34.5s-23.5 51.167 -23.5 82.5v166c0 30.667 -5 50 -15 58s-28.667 12 -56 12v80h110c31.333 -0.666992 55 -8.83398 71 -24.501s24 -39.167 24 -70.5v-212c0 -28 7.16699 -49.667 21.5 -65s33.166 -23 56.499 -23v-77
c-19.333 -0.666992 -37.166 -7.33398 -53.499 -20.001s-24.5 -32.667 -24.5 -60v-220c0 -31.333 -10.833 -54.833 -32.5 -70.5s-50.167 -23.5 -85.5 -23.5h-87v79c19.333 0 36 3.83301 50 11.5s21 26.834 21 57.501v167c0 34.667 8.83301 61.834 26.5 81.501
s40.167 31.5 67.5 35.5v1z" />
    <glyph glyph-name="asciitilde" unicode="~" horiz-adv-x="488" 
d="M24 228c8 14.667 15.8301 28.1689 23.4971 40.502s15.167 23.166 22.5 32.499c12.667 16.667 25.834 29 39.501 37s28.5 12 44.5 12c14.667 0 30.667 -3.16699 48 -9.5s36.666 -15.166 57.999 -26.499l46 -22c12.667 -6 24.334 -9 35.001 -9c4 0 7.83301 0.5 11.5 1.5
s7.16699 2.5 10.5 4.5c8.66699 4 17.167 11.333 25.5 22s17.833 24.667 28.5 42l55 -70c-15.333 -28.667 -30.166 -51.334 -44.499 -68.001s-28.5 -28.667 -42.5 -36c-6.66699 -4 -13.5 -6.83301 -20.5 -8.5s-14.167 -2.5 -21.5 -2.5c-13.333 0 -27.5 2.66699 -42.5 8
s-31.167 12 -48.5 20c-22.667 11.333 -42.334 20.333 -59.001 27s-30.667 10 -42 10s-21.166 -3.33301 -29.499 -10s-16.166 -17.334 -23.499 -32.001c-3.33301 -5.33301 -6.5 -11.5 -9.5 -18.5s-6.16699 -14.833 -9.5 -23.5l-55 79v0z" />
    <glyph glyph-name="endash" unicode="&#xa1;" 
d="M47 -236v527h158v-527h-158v0zM24 433c2 29.333 13.166 51.666 33.499 66.999s42.5 23.333 66.5 24c23.333 0 44.833 -7.5 64.5 -22.5s30.167 -38.167 31.5 -69.5v-3v-4c0.666992 -29.333 -9.16602 -51.666 -29.499 -66.999s-42.833 -23.333 -67.5 -24h-1.5h-1.5
c-24 0.666992 -46 9 -66 25s-30 40.333 -30 73v1z" />
    <glyph glyph-name="cent" unicode="&#xa2;" horiz-adv-x="488" 
d="M213 126c-42 3.33301 -75.3311 30.502 -99.998 81.502s-37 107.167 -37 168.5v4.5v4.5c1.33301 53.333 12.833 103.666 34.5 150.999s55.834 81 102.501 101v72h70v-63c8 -0.666992 16.667 -1.66699 26 -3s21.666 -6 36.999 -14v-125
c-8 4.66699 -15.5 8.16699 -22.5 10.5s-13.833 3.83301 -20.5 4.5c-22.667 0 -41.334 -14 -56.001 -42s-23.667 -66.667 -27 -116c0 -38.667 8.16699 -67 24.5 -85s34.166 -27 53.499 -27c8.66699 0 17.167 1.5 25.5 4.5s15.833 7.5 22.5 13.5v-133
c-5.33301 -2.66699 -10.333 -4.83398 -15 -6.50098s-9.33398 -3.16699 -14.001 -4.5c-5.33301 -2 -10.666 -3.5 -15.999 -4.5s-11.333 -1.5 -18 -1.5v-62h-70v71v0z" />
    <glyph glyph-name="sterling" unicode="&#xa3;" horiz-adv-x="488" 
d="M110 276l-94.001 -0.000976562v78h86v2.5c0 1 0.333008 2.16699 1 3.5v3.5v3.5c0 14 -1.16699 28.5 -3.5 43.5l-7.5 46.5c-2.66699 16 -5.16699 32.333 -7.5 49s-3.5 33.334 -3.5 50.001c-0.666992 25.333 2.83301 50.166 10.5 74.499s21.834 47.5 42.501 69.5
c16 17.333 38.667 32.166 68 44.499s60.333 18.5 93 18.5h1.5h1.5c45.333 -0.666992 87 -17.667 125 -51s57 -92.666 57 -177.999l-126 1c0.666992 4.66699 1.16699 9.16699 1.5 13.5s0.5 8.83301 0.5 13.5c0 22 -4.16699 40.167 -12.5 54.5s-21.833 21.5 -40.5 21.5h-6
c-2 0 -4 -0.333008 -6 -1c-26.667 -3.33301 -44.667 -14 -54 -32s-14 -39.667 -14 -65c0 -12 0.666992 -24.333 2 -37s3 -25.667 5 -39l2 -10c0.666992 -3.33301 1.33398 -7 2.00098 -11c2 -16 4.16699 -31.667 6.5 -47s3.5 -29.666 3.5 -42.999l126 1v-78h-126
c0 -10.667 -1 -21.834 -3 -33.501s-4.66699 -23.5 -8 -35.5c-5.33301 -16.667 -11.666 -33 -18.999 -49s-15.666 -29.667 -24.999 -41c5.33301 1.33301 10.166 2.33301 14.499 3s8.83301 1 13.5 1h4h4c8.66699 -0.666992 17.334 -2.16699 26.001 -4.5l28 -7.5
c11.333 -2.66699 23.666 -5.33398 36.999 -8.00098s28.333 -4 45 -4c15.333 0 32 1.5 50 4.5s38.333 8.16699 61 15.5v-101c-12.667 -10.667 -26.834 -17.834 -42.501 -21.501s-32.167 -5.5 -49.5 -5.5c-18 0 -37 1.5 -57 4.5s-40 6.16699 -60 9.5
c-7.33301 0.666992 -14.333 1.66699 -21 3s-13.334 2.33301 -20.001 3c-14 2.66699 -27.833 4.66699 -41.5 6s-27.167 2 -40.5 2c-16 0 -31.833 -1.16699 -47.5 -3.5s-30.834 -6.83301 -45.501 -13.5v118c12.667 4.66699 23.5 15.834 32.5 33.501s16.167 36.834 21.5 57.501
c2.66699 12 4.83398 23.833 6.50098 35.5s2.5 21.834 2.5 30.501v1z" />
    <glyph glyph-name="Idieresis" unicode="&#xa4;" horiz-adv-x="488" 
d="M47 433l-47.0039 46.999l79 79l47 -47c16 11.333 33.667 20.5 53 27.5s39 11.167 59 12.5h6h6c22.667 0 44.334 -3.33301 65.001 -10s39 -17 55 -31l47 48l71 -71l-39 -47c11.333 -18 20 -37.833 26 -59.5s9 -44.167 9 -67.5s-2.83301 -46.5 -8.5 -69.5
s-14.5 -44.5 -26.5 -64.5l39 -38l-79 -79l-39 39c-19.333 -12 -39.166 -21 -59.499 -27s-41.166 -9 -62.499 -9s-42.833 2.83301 -64.5 8.5s-43.5 14.5 -65.5 26.5l-39 -38l-79 79l47 47c-10.667 16.667 -19.167 36 -25.5 58s-9.83301 44.667 -10.5 68v10
c0 3.33301 0.333008 6.66602 1 9.99902c1.33301 16.667 4.83301 33.334 10.5 50.001s13.834 32.334 24.501 47.001v1zM133.996 306.999c2 -41.333 14.668 -72 38.001 -92s49 -30 77 -30h1.5h1.5c28.667 0.666992 55 11.167 79 31.5s37 50.166 39 89.499v2v2v1v2
c0 38.667 -12.333 67.834 -37 87.501s-52 29.5 -82 29.5h-1.5h-1.5c-28.667 -0.666992 -54.834 -11 -78.501 -31s-35.5 -51 -35.5 -93v1z" />
    <glyph glyph-name="ae" unicode="&#xa5;" horiz-adv-x="488" 
d="M165 0v252h-126v71h126v39l-8 32h-118v71h87l-142 291h173l87 -291l87 291h173l-134 -291h79v-71h-110l-16 -32v-39h126v-71h-126v-252h-158v0z" />
    <glyph glyph-name="brokenbar" unicode="&#xa6;" 
 />
    <glyph glyph-name="section" unicode="&#xa7;" horiz-adv-x="488" 
d="M110 457c-22 16 -38.165 35.167 -48.498 57.5s-15.5 45.166 -15.5 68.499v2.5v3.5c1.33301 43.333 18.166 83.166 50.499 119.499s76.166 54.5 131.499 54.5c75.333 0 129.666 -18.667 162.999 -56s50 -89.666 50 -156.999l-142 1
c1.33301 4.66699 2.16602 9.33398 2.49902 14.001s0.5 9 0.5 13c0 25.333 -6.16699 43.666 -18.5 54.999s-26.166 17.333 -41.499 18h-1.5h-1.5c-14.667 -0.666992 -28 -5.83398 -40 -15.501s-18 -22.5 -18 -38.5c0 -29.333 11.167 -52.666 33.5 -69.999
s48.5 -33.333 78.5 -48c4.66699 -2.66699 9.66699 -5.33398 15 -8.00098s10.333 -5.33398 15 -8.00098c34 -16.667 65.167 -36.5 93.5 -59.5s44.5 -55.5 48.5 -97.5v-4c0 -1.33301 0.333008 -2.66602 1 -3.99902v-4v-4c0 -38.667 -10 -70.834 -30 -96.501
s-44.667 -45.834 -74 -60.501c25.333 -11.333 45.333 -31.166 60 -59.499s22 -57.833 22 -88.5c0 -41.333 -14.5 -79.333 -43.5 -114s-77.167 -52 -144.5 -52h-6h-6c-72 0 -121.5 16.167 -148.5 48.5s-42.5 67.833 -46.5 106.5c-0.666992 6 -1.16699 11.833 -1.5 17.5
s-0.5 10.834 -0.5 15.501l142 1v-3.5v-2.5v-2v-2c0 -25.333 6 -44.166 18 -56.499s25.333 -18.833 40 -19.5c14 0 27 5.16699 39 15.5s19 25.833 21 46.5v1.5v0.5v1.5v1.5c0 22.667 -9.5 43 -28.5 61s-41.833 35.667 -68.5 53c-6.66699 4.66699 -13.5 9 -20.5 13
s-13.833 8.33301 -20.5 13c-33.333 21.333 -64.166 44.5 -92.499 69.5s-43.5 55.5 -45.5 91.5v4v4c-0.666992 0.666992 -1 1.66699 -1 3v4c0 30 6.5 56.333 19.5 79s27.5 41.667 43.5 57c2.66699 2.66699 5.5 5.33398 8.5 8.00098s5.83301 5 8.5 7v1zM205.002 394
c-14.667 -9.33301 -25.501 -19.8301 -32.501 -31.4971s-10.833 -24.167 -11.5 -37.5c0 -6 0.833008 -12.333 2.5 -19s4.16699 -13.334 7.5 -20.001c8 -16 20.833 -31.833 38.5 -47.5s39.834 -29.834 66.501 -42.501c20 13.333 34.5 26.5 43.5 39.5s13.5 25.5 13.5 37.5
c0 23.333 -13 45.166 -39 65.499s-55.667 38.5 -89 54.5v1z" />
    <glyph glyph-name="dieresis" unicode="&#xa8;" horiz-adv-x="299" 
d="M-24 661c0.666992 22.667 8.50098 40 23.501 52s31.833 18 50.5 18c19.333 0.666992 36.833 -5 52.5 -17s23.5 -30 23.5 -54c0 -25.333 -7.66699 -44.333 -23 -57s-32.333 -19 -51 -19c-18.667 -0.666992 -35.834 5.5 -51.501 18.5s-23.5 32.167 -23.5 57.5zM181.001 661
c0 22.667 7.66699 40 23 52s32.333 18 51 18c19.333 0.666992 36.833 -5 52.5 -17s23.5 -30 23.5 -54c0 -25.333 -7.66699 -44.333 -23 -57s-32.333 -19 -51 -19c-18.667 -0.666992 -36 5.5 -52 18.5s-24 32.167 -24 57.5v1z" />
    <glyph glyph-name="copyright" unicode="&#xa9;" horiz-adv-x="827" 
d="M24 378v5.00195v6c-0.666992 98 28 177.333 86 238s122 101 192 121c16.667 5.33301 33.5 9.16602 50.5 11.499s33.5 3.5 49.5 3.5h3.5h3.5h3h3c103.333 0.666992 192.5 -37.333 267.5 -114s112.5 -167.334 112.5 -272.001c0 -98.667 -38.667 -187.5 -116 -266.5
s-167.333 -118.5 -270 -118.5c-102 0 -190.833 36.5 -266.5 109.5s-115.167 164.833 -118.5 275.5v1zM102 378.002c2.66699 -77.333 23.667 -139.669 63 -187.002s82.333 -81.333 129 -102c20.667 -9.33301 40.834 -16.166 60.501 -20.499s37.834 -6.5 54.501 -6.5
c87.333 0 161.666 30.833 222.999 92.5s92 135.834 92 222.501c0 94.667 -32 170.834 -96 228.501s-139.333 86.5 -226 86.5c-82.667 0 -153.334 -30.833 -212.001 -92.5s-88 -135.834 -88 -222.501v1zM520 456.999c-3.33301 24.667 -14.9971 44.168 -34.9971 58.501
s-42 21.5 -66 21.5h-4h-4c-28 -2 -53.833 -14.333 -77.5 -37s-35.5 -57 -35.5 -103v-9.5c0 -3.66699 0.333008 -7.16699 1 -10.5c2 -45.333 14 -79.833 36 -103.5s46 -37.834 72 -42.501c3.33301 -0.666992 6.66602 -1.16699 9.99902 -1.5s6.66602 -0.5 9.99902 -0.5
c24.667 0 46.334 7.5 65.001 22.5s28 35.833 28 62.5l78 1c0 -44 -17 -80.167 -51 -108.5s-74.667 -42.5 -122 -42.5c-61.333 0 -109.5 18.167 -144.5 54.5s-56.5 76.166 -64.5 119.499l-2 11.5c-0.666992 3.66699 -1 7.5 -1 11.5v7.5v7.5
c-0.666992 64.667 15.166 114.834 47.499 150.501s68.166 59.167 107.499 70.5c9.33301 2.66699 18.833 4.66699 28.5 6s19.167 2 28.5 2c43.333 0 83 -14 119 -42s54 -63.667 54 -107l-78 1v0z" />
    <glyph glyph-name="ellipsis" unicode="&#xaa;" horiz-adv-x="299" 
d="M31 354v55h245v-55h-245v0zM173 740l-0.000976562 32h95v-307h-95v31c-4.66699 -11.333 -12.5 -21 -23.5 -29s-23.167 -12 -36.5 -12c-2 0 -4.16699 0.166992 -6.5 0.5s-4.5 0.833008 -6.5 1.5c-18 4 -34.667 18.833 -50 44.5s-24 68.167 -26 127.5
c0 48 7.83301 83.5 23.5 106.5s32.834 36.5 51.501 40.5c2 0 4 0.166992 6 0.5s4 0.5 6 0.5c13.333 0.666992 25.5 -2.5 36.5 -9.5s19.5 -16.5 25.5 -28.5v1zM149.999 701c-12 -0.666992 -21 -9.49805 -27 -26.498s-9 -35.833 -9 -56.5s3 -39.834 9 -57.501
s15 -26.5 27 -26.5c11.333 0 20 8.5 26 25.5s9 35.833 9 56.5c0 21.333 -2.83301 40.666 -8.5 57.999s-14.5 26 -26.5 26v1z" />
    <glyph glyph-name="ydieresis" unicode="&#xab;" horiz-adv-x="433" 
d="M150 575l86 -47l-110 -189l110 -197l-86 -40l-134 237l134 236v0zM323 575l86 -47l-110 -189l110 -197l-86 -40l-134 237l134 236v0z" />
    <glyph glyph-name="emdash" unicode="&#xac;" 
 />
    <glyph glyph-name="uni00AD" unicode="&#xad;" horiz-adv-x="500" 
 />
    <glyph glyph-name="registered" unicode="&#xae;" horiz-adv-x="827" 
d="M24 378v5.00195v6c-0.666992 98 28 177.333 86 238s122 101 192 121c16.667 5.33301 33.5 9.16602 50.5 11.499s33.5 3.5 49.5 3.5h3.5h3.5h3h3c103.333 0.666992 192.5 -37.333 267.5 -114s112.5 -167.334 112.5 -272.001c0 -98.667 -38.667 -187.5 -116 -266.5
s-167.333 -118.5 -270 -118.5c-102 0 -190.833 36.5 -266.5 109.5s-115.167 164.833 -118.5 275.5v1zM102 378.002c2.66699 -77.333 23.667 -139.669 63 -187.002s82.333 -81.333 129 -102c20.667 -9.33301 40.834 -16.166 60.501 -20.499s37.834 -6.5 54.501 -6.5
c87.333 0 161.666 30.833 222.999 92.5s92 135.834 92 222.501c0 94.667 -32 170.834 -96 228.501s-139.333 86.5 -226 86.5c-82.667 0 -153.334 -30.833 -212.001 -92.5s-88 -135.834 -88 -222.501v1zM252 164.999v425.999h228
c51.333 -0.666992 87.833 -12.167 109.5 -34.5s32.5 -53.166 32.5 -92.499s-9.5 -68 -28.5 -86s-46.167 -29 -81.5 -33l102 -180h-102l-95 181h-78v-181h-87v0zM339 408.998l141.001 -0.00195312c21.333 -0.666992 37 4.83301 47 16.5s15 24.834 15 39.501v2.5v2.5
c-0.666992 14.667 -6.33398 27.834 -17.001 39.501s-25.667 17.5 -45 17.5l-141 1v-119v0z" />
    <glyph glyph-name="glyph263" unicode="&#xaf;" 
 />
    <glyph glyph-name="glyph264" unicode="&#xb0;" 
 />
    <glyph glyph-name="mu" unicode="&#xb1;" horiz-adv-x="488" 
 />
    <glyph glyph-name="uni00B2" unicode="&#xb2;" 
 />
    <glyph glyph-name="uni00B3" unicode="&#xb3;" 
 />
    <glyph glyph-name="acute" unicode="&#xb4;" horiz-adv-x="299" 
d="M39 606l95 142l102 -47l-126 -134l-71 39v0z" />
    <glyph glyph-name="oslash" unicode="&#xb5;" horiz-adv-x="425" 
 />
    <glyph glyph-name="paragraph" unicode="&#xb6;" horiz-adv-x="598" 
d="M181 -102v511c-2 -0.666992 -4 -1 -6 -1h-5c-46.667 -0.666992 -82.5 17.333 -107.5 54s-37.5 77 -37.5 121c-0.666992 43.333 11.833 82.833 37.5 118.5s65.167 53.5 118.5 53.5l354 1v-118h-39v-740h-126v740h-63v-740h-126v0z" />
    <glyph glyph-name="glyph265" unicode="&#xb7;" 
 />
    <glyph glyph-name="bullet" unicode="&#xb8;" horiz-adv-x="299" 
d="M63 -173l79 134l86 -40l-110 -134l-55 40v0z" />
    <glyph glyph-name="uni00B9" unicode="&#xb9;" 
 />
    <glyph glyph-name="Agrave" unicode="&#xba;" horiz-adv-x="299" 
d="M39 402h237v-56h-237v56v0zM150 772c1.33301 -0.666992 2.5 -1 3.5 -1h2.5c41.333 0 72.833 -16.667 94.5 -50s32.834 -70 33.501 -110v-1.5v-1.5c0 -40 -10.5 -76.667 -31.5 -110s-52.833 -50 -95.5 -50s-74.834 16.667 -96.501 50s-33.167 70 -34.5 110v1.5v1.5
c0 40.667 10.5 77.5 31.5 110.5s51.833 49.5 92.5 49.5v1zM150 693c-10.667 -0.666992 -18.668 -8.16699 -24.001 -22.5s-8 -31.166 -8 -50.499v-6v-6c0.666992 -20.667 4.33398 -39.334 11.001 -56.001s16 -25 28 -25c11.333 0 20 8 26 24s9 34 9 54v4v4
c-0.666992 20 -4.5 38.167 -11.5 54.5s-17.167 24.5 -30.5 24.5v1z" />
    <glyph glyph-name="Ydieresis" unicode="&#xbb;" horiz-adv-x="433" 
d="M31 520l79 39l126 -236l-126 -229l-79 48l103 181l-103 197v0zM205 520l78 39l126 -236l-126 -229l-78 48l102 181l-102 197v0z" />
    <glyph glyph-name="onequarter" unicode="&#xbc;" 
 />
    <glyph glyph-name="glyph243" unicode="&#xbd;" horiz-adv-x="732" 
 />
    <glyph glyph-name="threequarters" unicode="&#xbe;" 
 />
    <glyph glyph-name="oe" unicode="&#xbf;" horiz-adv-x="457" 
d="M142 276h157.002v-189c-42.667 -0.666992 -71.667 -8.66699 -87 -24s-23 -44.333 -23 -87v-9v-9c0.666992 -21.333 3.5 -40.666 8.5 -57.999s17.833 -26 38.5 -26c12 0 22.833 6.66699 32.5 20s14.5 35.666 14.5 66.999h142v-9.5v-8.5
c0.666992 -72.667 -18.333 -124.667 -57 -156s-82.667 -47 -132 -47c-50.667 0 -96.834 15 -138.501 45s-66.167 80.667 -73.5 152c0 10.667 0.5 26.5 1.5 47.5s4.5 42.833 10.5 65.5c6.66699 26.667 18.167 51.667 34.5 75s40.166 39 71.499 47v104v0zM118.002 433
c2 28.667 13 50.667 33 66s41.667 23.666 65 24.999h1.5h1.5c23.333 0 44.666 -7.5 63.999 -22.5s30 -38.167 32 -69.5v-3v-4c0.666992 -29.333 -9.16602 -51.666 -29.499 -66.999s-42.833 -23.333 -67.5 -24c-24.667 0 -47.5 8.16699 -68.5 24.5s-31.5 40.833 -31.5 73.5v1
z" />
    <glyph glyph-name="currency" unicode="&#xc0;" horiz-adv-x="528" 
d="M181 756h158l181 -756h-158l-23 126h-150l-32 -126h-149l173 756v0zM205 236h110l-63 331l-47 -331v0zM173 969l103 47l102 -150l-79 -39l-126 142v0z" />
    <glyph glyph-name="breve" unicode="&#xc1;" horiz-adv-x="528" 
d="M173 756h158l181 -756h-158l-23 126h-150l-31 -126h-150l173 756v0zM197 236h110l-63 331l-47 -331v0zM157 858l95 142l102 -47l-126 -134l-71 39v0z" />
    <glyph glyph-name="tilde" unicode="&#xc2;" horiz-adv-x="528" 
d="M173 756h158l181 -756h-158l-23 126h-150l-31 -126h-150l173 756v0zM197 236h110l-63 331l-47 -331v0zM173 811l-63 71l150 118l149 -126l-63 -63l-86 71l-87 -71v0z" />
    <glyph glyph-name="guilsinglleft" unicode="&#xc3;" horiz-adv-x="528" 
d="M173 756h158l181 -756h-158l-23 126h-150l-31 -126h-150l173 756v0zM197 236h110l-63 331l-47 -331v0zM87 858c0 -0.666992 0.664062 6.33105 1.99707 20.998s5.33301 30.667 12 48c6 17.333 15.333 33.333 28 48s30.334 22 53.001 22
c9.33301 0 19.833 -1.83301 31.5 -5.5s24.5 -9.16699 38.5 -16.5c2.66699 -0.666992 5.16699 -1.66699 7.5 -3s4.83301 -2.33301 7.5 -3l3 -1.5l3 -1.5c6.66699 -2.66699 13.5 -5.16699 20.5 -7.5s13.167 -3.5 18.5 -3.5c8 -0.666992 14.5 2.33301 19.5 9
s7.5 18.334 7.5 35.001l86 1c-5.33301 -51.333 -17.166 -88.666 -35.499 -111.999s-41.166 -35 -68.499 -35c-10.667 0 -21.667 1.66699 -33 5s-23.333 8.33301 -36 15c-2 0.666992 -4.16699 1.5 -6.5 2.5s-4.5 1.83301 -6.5 2.5c-7.33301 4 -14.5 7.33301 -21.5 10
s-13.167 4 -18.5 4c-6.66699 0 -12.167 -2.5 -16.5 -7.5s-7.5 -14.167 -9.5 -27.5l-86 1v0z" />
    <glyph glyph-name="Adieresis" unicode="&#xc4;" horiz-adv-x="528" 
d="M173 756h158l181 -756h-158l-23 126h-150l-31 -126h-150l173 756v0zM197 236h110l-63 331l-47 -331v0zM87 913c0 22.667 7.66699 40 23 52s32.333 18 51 18h1.5h1.5c18 0 34.5 -6 49.5 -18s22.5 -29.667 22.5 -53c0 -25.333 -7.66699 -44.333 -23 -57
s-32.333 -19 -51 -19h-1.5h-1.5c-18 0 -34.5 6.5 -49.5 19.5s-22.5 31.833 -22.5 56.5v1zM291 913c0 22.667 7.66699 40 23 52s32.333 18 51 18c19.333 0.666992 36.833 -5 52.5 -17s23.5 -30 23.5 -54c0 -25.333 -7.66699 -44.333 -23 -57s-32.333 -19 -51 -19
c-18.667 -0.666992 -36 5.5 -52 18.5s-24 32.167 -24 57.5v1z" />
    <glyph glyph-name="Aring" unicode="&#xc5;" horiz-adv-x="528" 
d="M173 756h158l181 -756h-158l-23 126h-150l-31 -126h-150l173 756v0zM197 236h110l-63 331l-47 -331v0zM134 913c0 34 11.001 59.8311 33.001 77.498s46.333 26.834 73 27.501h1.5h1.5c28 0.666992 53.5 -8 76.5 -26s34.5 -44.667 34.5 -80v-2v-1v-2v-2
c0.666992 -36 -9.83301 -63.167 -31.5 -81.5s-45.5 -28.166 -71.5 -29.499h-1.5h-1.5c-28.667 0 -54.834 9.83301 -78.501 29.5s-35.5 49.167 -35.5 88.5v1zM197.001 912.998c0 -16 4.83301 -28 14.5 -36s20.167 -12 31.5 -12c12 0 23 3.83301 33 11.5s15 19.5 15 35.5
c0 14 -4.83301 24.5 -14.5 31.5s-20.167 10.5 -31.5 10.5c-12 0 -23 -3.5 -33 -10.5s-15 -17.5 -15 -31.5v1z" />
    <glyph glyph-name="Oslash" unicode="&#xc6;" horiz-adv-x="677" 
d="M181 764h307l32 -142h-150l39 -157h150l32 -142h-142l39 -181h142l39 -142h-307l-23 126h-158l-24 -126h-149l173 764v0zM252 567l-47 -315h102l-55 315v0z" />
    <glyph glyph-name="Ccedilla" unicode="&#xc7;" horiz-adv-x="449" 
d="M315 -87l-110 -133l-63 31l78 142l95 -40v0zM425 740l0.000976562 -126.003c-6.66699 2 -15 3.83301 -25 5.5s-21 2.5 -33 2.5c-8.66699 0 -17.834 -0.5 -27.501 -1.5s-19.167 -3.16699 -28.5 -6.5c-22.667 -6 -44.5 -17.667 -65.5 -35s-37.167 -42.666 -48.5 -75.999
c-5.33301 -15.333 -9.5 -32.666 -12.5 -51.999s-4.5 -39.666 -4.5 -60.999c0 -6 0.166992 -12.333 0.5 -19s0.5 -13 0.5 -19c5.33301 -54.667 22.5 -104.667 51.5 -150s74.167 -68 135.5 -68c8.66699 0 17.667 0.5 27 1.5s19.333 2.83301 30 5.5v-133
c-11.333 -5.33301 -23.833 -9.5 -37.5 -12.5s-27.834 -4.5 -42.501 -4.5c-13.333 0 -27.166 1.16699 -41.499 3.5s-28.5 5.5 -42.5 9.5c-50 16.667 -97 49 -141 97s-73.667 113.667 -89 197c-2 12.667 -3.5 25.167 -4.5 37.5s-1.5 24.5 -1.5 36.5c0 56.667 8.5 109 25.5 157
s36.833 86.667 59.5 116c23.333 29.333 49.5 52.833 78.5 70.5s58.5 29.5 88.5 35.5c9.33301 2 18.666 3.5 27.999 4.5s18.333 1.5 27 1.5c16.667 0 32.834 -1.5 48.501 -4.5s30.5 -7.5 44.5 -13.5v1z" />
    <glyph glyph-name="ring" unicode="&#xc8;" horiz-adv-x="394" 
d="M47 0v756h307v-142h-149v-157h126v-150h-126v-165h149v-142h-307v0zM102 961l103 47l102 -150l-79 -39l-126 142v0z" />
    <glyph glyph-name="Eacute" unicode="&#xc9;" horiz-adv-x="394" 
d="M47 0v756h307v-142h-149v-157h126v-150h-126v-165h149v-142h-307v0zM94 858l95 142l102 -47l-126 -134l-71 39v0z" />
    <glyph glyph-name="macron" unicode="&#xca;" horiz-adv-x="394" 
d="M47 0v756h307v-142h-149v-157h126v-150h-126v-165h149v-142h-307v0zM110 803l-63 71l150 118l149 -126l-63 -63l-86 71l-87 -71v0z" />
    <glyph glyph-name="dotaccent" unicode="&#xcb;" horiz-adv-x="394" 
d="M47 0v756h307v-142h-149v-157h126v-150h-126v-165h149v-142h-307v0zM16 906c0 22.667 7.66699 39.833 23 51.5s32.333 17.5 51 17.5h1.5h1.5c18 0 34.5 -6 49.5 -18s22.5 -29.333 22.5 -52c0 -25.333 -7.66699 -44.5 -23 -57.5s-32.333 -19.5 -51 -19.5h-1.5h-1.5
c-18 0 -34.5 6.5 -49.5 19.5s-22.5 32.167 -22.5 57.5v1zM220 905.999c0 22.667 7.66699 39.833 23 51.5s32.333 17.5 51 17.5c19.333 0.666992 36.833 -5 52.5 -17s23.5 -29.667 23.5 -53c0 -25.333 -7.66699 -44.5 -23 -57.5s-32.333 -19.5 -51 -19.5
c-18.667 -0.666992 -36 5.5 -52 18.5s-24 32.5 -24 58.5v1z" />
    <glyph glyph-name="caron" unicode="&#xcc;" horiz-adv-x="252" 
d="M55 756h142v-756h-142v756v0zM31 961l103 47l102 -150l-79 -39l-126 142v0z" />
    <glyph glyph-name="cedilla" unicode="&#xcd;" horiz-adv-x="252" 
d="M55 756h142v-756h-142v756v0zM31 858l95 142l102 -47l-126 -134l-71 39v0z" />
    <glyph glyph-name="hungarumlaut" unicode="&#xce;" horiz-adv-x="252" 
d="M55 756h142v-756h-142v756v0zM47 811l-63 71l150 118l149 -126l-63 -63l-86 71l-87 -71v0z" />
    <glyph glyph-name="ogonek" unicode="&#xcf;" horiz-adv-x="252" 
d="M55 756h142v-756h-142v756v0zM-39 906c0.666992 22.667 8.5 39.833 23.5 51.5s31.833 17.5 50.5 17.5h1.5h1.5c18 0 34.5 -6 49.5 -18s22.5 -29.333 22.5 -52c0 -25.333 -7.66699 -44.5 -23 -57.5s-32.333 -19.5 -51 -19.5h-1.5h-1.5c-18 0 -34.333 6.5 -49 19.5
s-22 32.167 -22 57.5zM165 905.999c0 22.667 7.66699 39.833 23 51.5s32.333 17.5 51 17.5c19.333 0.666992 36.833 -5 52.5 -17s23.5 -29.667 23.5 -53c0 -25.333 -7.66699 -44.5 -23 -57.5s-32.333 -19.5 -51 -19.5c-18.667 -0.666992 -36 5.5 -52 18.5s-24 32.5 -24 58.5
v1z" />
    <glyph glyph-name="glyph232" unicode="&#xd0;" horiz-adv-x="528" 
 />
    <glyph glyph-name="Ntilde" unicode="&#xd1;" horiz-adv-x="575" 
d="M63 756h150l173 -465v465h142v-756h-134l-181 449v-449h-150v756v0zM126 850c0 -0.666992 0.667969 6.33105 2.00098 20.998s5.33301 30.667 12 48c6 17.333 15.5 33.333 28.5 48s30.833 22 53.5 22c9.33301 0 19.833 -1.66699 31.5 -5s24.167 -8.66602 37.5 -15.999
c2.66699 -0.666992 5.33398 -1.66699 8.00098 -3l8 -4h0.5h1.5c7.33301 -4 14.833 -7.33301 22.5 -10s14.5 -4 20.5 -4c7.33301 0 13.5 3.16699 18.5 9.5s7.5 17.833 7.5 34.5l87 1c-5.33301 -51.333 -17.333 -88.666 -36 -111.999s-41.334 -35 -68.001 -35
c-10.667 0 -21.834 1.66699 -33.501 5s-23.834 8.33301 -36.501 15c-2 0.666992 -4.16699 1.5 -6.5 2.5s-4.5 1.83301 -6.5 2.5c-7.33301 4 -14.5 7.33301 -21.5 10s-13.167 4 -18.5 4c-6.66699 0 -12.167 -2.5 -16.5 -7.5s-7.16602 -14.167 -8.49902 -27.5l-87 1v0z" />
    <glyph glyph-name="scaron" unicode="&#xd2;" 
 />
    <glyph glyph-name="Lslash" unicode="&#xd3;" horiz-adv-x="583" 
d="M276 756c2 -0.666992 3.99805 -1.00195 5.99805 -1.00195h7c4 0 8.16699 -0.166992 12.5 -0.5s8.83301 -0.833008 13.5 -1.5c56.667 -7.33301 108.834 -42.166 156.501 -104.499s71.5 -160.833 71.5 -295.5c0 -19.333 -1.5 -44.166 -4.5 -74.499s-9.5 -61.5 -19.5 -93.5
c-14 -47.333 -37.833 -90.833 -71.5 -130.5s-83.167 -63.167 -148.5 -70.5h-3c-1.33301 0 -2.66602 -0.333008 -3.99902 -1h-3h-4c-14 0 -29 1.83301 -45 5.5s-32 9.16699 -48 16.5c-39.333 19.333 -76 54.333 -110 105s-53.333 124 -58 220v13.5
c0 4.33301 -0.333008 8.83301 -1 13.5c0 108 21.333 200.333 64 277s105.667 117 189 121v1zM282.998 621.998c-30 -3.33301 -52.1689 -18.832 -66.502 -46.499s-23.833 -58.167 -28.5 -91.5c-3.33301 -22 -5.33301 -43.5 -6 -64.5s-1 -37.833 -1 -50.5
c-0.666992 -3.33301 -1 -7 -1 -11v-12c0 -12.667 0.833008 -26.667 2.5 -42s4.16699 -31.333 7.5 -48c7.33301 -34.667 18.833 -66.334 34.5 -95.001s35.834 -43.334 60.501 -44.001h3.5h2.5c31.333 4 56.333 26.333 75 67s28 102.334 28 185.001
c0 10 -0.166992 20.333 -0.5 31s-0.833008 21.334 -1.5 32.001c-3.33301 47.333 -12.666 90.666 -27.999 129.999s-42.333 59 -81 59v1zM188.996 857.999l94 142l103 -47l-126 -134l-71 39v0z" />
    <glyph glyph-name="lslash" unicode="&#xd4;" horiz-adv-x="583" 
d="M276 756c2 -0.666992 3.99805 -1.00195 5.99805 -1.00195h7c4 0 8.16699 -0.166992 12.5 -0.5s8.83301 -0.833008 13.5 -1.5c56.667 -7.33301 108.834 -42.166 156.501 -104.499s71.5 -160.833 71.5 -295.5c0 -19.333 -1.5 -44.166 -4.5 -74.499s-9.5 -61.5 -19.5 -93.5
c-14 -47.333 -37.833 -90.833 -71.5 -130.5s-83.167 -63.167 -148.5 -70.5h-3c-1.33301 0 -2.66602 -0.333008 -3.99902 -1h-3h-4c-14 0 -29 1.83301 -45 5.5s-32 9.16699 -48 16.5c-39.333 19.333 -76 54.333 -110 105s-53.333 124 -58 220v13.5
c0 4.33301 -0.333008 8.83301 -1 13.5c0 108 21.333 200.333 64 277s105.667 117 189 121v1zM282.998 621.998c-30 -3.33301 -52.1689 -18.832 -66.502 -46.499s-23.833 -58.167 -28.5 -91.5c-3.33301 -22 -5.33301 -43.5 -6 -64.5s-1 -37.833 -1 -50.5
c-0.666992 -3.33301 -1 -7 -1 -11v-12c0 -12.667 0.833008 -26.667 2.5 -42s4.16699 -31.333 7.5 -48c7.33301 -34.667 18.833 -66.334 34.5 -95.001s35.834 -43.334 60.501 -44.001h3.5h2.5c31.333 4 56.333 26.333 75 67s28 102.334 28 185.001
c0 10 -0.166992 20.333 -0.5 31s-0.833008 21.334 -1.5 32.001c-3.33301 47.333 -12.666 90.666 -27.999 129.999s-42.333 59 -81 59v1zM219.996 810.999l-63 71l150 118l150 -126l-63 -63l-87 71l-87 -71v0z" />
    <glyph glyph-name="guilsinglright" unicode="&#xd5;" horiz-adv-x="583" 
d="M276 756c2 -0.666992 3.99805 -1.00195 5.99805 -1.00195h7c4 0 8.16699 -0.166992 12.5 -0.5s8.83301 -0.833008 13.5 -1.5c56.667 -7.33301 108.834 -42.166 156.501 -104.499s71.5 -160.833 71.5 -295.5c0 -19.333 -1.5 -44.166 -4.5 -74.499s-9.5 -61.5 -19.5 -93.5
c-14 -47.333 -37.833 -90.833 -71.5 -130.5s-83.167 -63.167 -148.5 -70.5h-3c-1.33301 0 -2.66602 -0.333008 -3.99902 -1h-3h-4c-14 0 -29 1.83301 -45 5.5s-32 9.16699 -48 16.5c-39.333 19.333 -76 54.333 -110 105s-53.333 124 -58 220v13.5
c0 4.33301 -0.333008 8.83301 -1 13.5c0 108 21.333 200.333 64 277s105.667 117 189 121v1zM282.998 621.998c-30 -3.33301 -52.1689 -18.832 -66.502 -46.499s-23.833 -58.167 -28.5 -91.5c-3.33301 -22 -5.33301 -43.5 -6 -64.5s-1 -37.833 -1 -50.5
c-0.666992 -3.33301 -1 -7 -1 -11v-12c0 -12.667 0.833008 -26.667 2.5 -42s4.16699 -31.333 7.5 -48c7.33301 -34.667 18.833 -66.334 34.5 -95.001s35.834 -43.334 60.501 -44.001h3.5h2.5c31.333 4 56.333 26.333 75 67s28 102.334 28 185.001
c0 10 -0.166992 20.333 -0.5 31s-0.833008 21.334 -1.5 32.001c-3.33301 47.333 -12.666 90.666 -27.999 129.999s-42.333 59 -81 59v1zM125.996 849.999c0 -0.666992 0.667969 6.33105 2.00098 20.998s5.33301 30.667 12 48c6 17.333 15.5 33.333 28.5 48
s30.833 22 53.5 22c9.33301 0 19.833 -1.66699 31.5 -5s24.167 -8.66602 37.5 -15.999c2.66699 -0.666992 5.33398 -1.66699 8.00098 -3l8 -4h0.5h1.5c7.33301 -4 14.833 -7.33301 22.5 -10s14.5 -4 20.5 -4c7.33301 0 13.5 3.16699 18.5 9.5s7.5 17.833 7.5 34.5l87 1
c-5.33301 -51.333 -17.333 -88.666 -36 -111.999s-41.334 -35 -68.001 -35c-10.667 0 -21.834 1.66699 -33.501 5s-23.834 8.33301 -36.501 15c-2 0.666992 -4.16699 1.5 -6.5 2.5s-4.5 1.83301 -6.5 2.5c-7.33301 4 -14.5 7.33301 -21.5 10s-13.167 4 -18.5 4
c-6.66699 0 -12.167 -2.5 -16.5 -7.5s-7.16602 -14.167 -8.49902 -27.5l-87 1v0z" />
    <glyph glyph-name="Odieresis" unicode="&#xd6;" horiz-adv-x="583" 
d="M276 756c2 -0.666992 3.99805 -1.00195 5.99805 -1.00195h7c4 0 8.16699 -0.166992 12.5 -0.5s8.83301 -0.833008 13.5 -1.5c56.667 -7.33301 108.834 -42.166 156.501 -104.499s71.5 -160.833 71.5 -295.5c0 -19.333 -1.5 -44.166 -4.5 -74.499s-9.5 -61.5 -19.5 -93.5
c-14 -47.333 -37.833 -90.833 -71.5 -130.5s-83.167 -63.167 -148.5 -70.5h-3c-1.33301 0 -2.66602 -0.333008 -3.99902 -1h-3h-4c-14 0 -29 1.83301 -45 5.5s-32 9.16699 -48 16.5c-39.333 19.333 -76 54.333 -110 105s-53.333 124 -58 220v13.5
c0 4.33301 -0.333008 8.83301 -1 13.5c0 108 21.333 200.333 64 277s105.667 117 189 121v1zM282.998 621.998c-30 -3.33301 -52.1689 -18.832 -66.502 -46.499s-23.833 -58.167 -28.5 -91.5c-3.33301 -22 -5.33301 -43.5 -6 -64.5s-1 -37.833 -1 -50.5
c-0.666992 -3.33301 -1 -7 -1 -11v-12c0 -12.667 0.833008 -26.667 2.5 -42s4.16699 -31.333 7.5 -48c7.33301 -34.667 18.833 -66.334 34.5 -95.001s35.834 -43.334 60.501 -44.001h3.5h2.5c31.333 4 56.333 26.333 75 67s28 102.334 28 185.001
c0 10 -0.166992 20.333 -0.5 31s-0.833008 21.334 -1.5 32.001c-3.33301 47.333 -12.666 90.666 -27.999 129.999s-42.333 59 -81 59v1zM109.996 912.999c0 22.667 7.66699 40 23 52s32.333 18 51 18c19.333 0.666992 36.833 -5 52.5 -17s23.5 -30 23.5 -54
c0 -25.333 -7.66699 -44.333 -23 -57s-32.333 -19 -51 -19c-18.667 -0.666992 -36 5.5 -52 18.5s-24 32.167 -24 57.5v1zM314.996 912.999c0 22.667 7.66699 40 23 52s32.333 18 51 18c19.333 0.666992 36.833 -5 52.5 -17s23.5 -30 23.5 -54
c0 -25.333 -7.66699 -44.333 -23 -57s-32.333 -19 -51 -19c-18.667 -0.666992 -36 5.5 -52 18.5s-24 32.167 -24 57.5v1z" />
    <glyph glyph-name="multiply" unicode="&#xd7;" 
 />
    <glyph glyph-name="plusminus" unicode="&#xd8;" horiz-adv-x="583" 
d="M488 764l62.999 -39.999l-55 -86c19.333 -34.667 34 -72.5 44 -113.5s16 -82.833 18 -125.5v-12.5v-12.5c0 -98.667 -21.667 -188.334 -65 -269.001s-106 -121.334 -188 -122.001c-26 0 -54 4.83301 -84 14.5s-61.667 25.834 -95 48.501l-39 -62l-56 47l48 71
c-20.667 52 -36 102.333 -46 151s-15 94.667 -15 138c0 114 26.833 205.5 80.5 274.5s115.834 103.833 186.501 104.5c11.333 0 23 -1 35 -3s24 -5 36 -9c15.333 -6 30.833 -13.667 46.5 -23s31.167 -21 46.5 -35l39 64v0zM212.999 181.001
c11.333 -20 23.668 -34.332 37.001 -42.999s29.666 -13 48.999 -13c32 0 55.333 24.667 70 74s22 105 22 167v15.5c0 5 -0.333008 9.83301 -1 14.5c0 10 -0.333008 20.167 -1 30.5s-1.66699 20.166 -3 29.499l-173 -275v0zM189.001 276.002l173.001 283
c-4 15.333 -11.833 29.5 -23.5 42.5s-27.5 19.5 -47.5 19.5c-42.667 0 -70.834 -23.833 -84.501 -71.5s-20.5 -103.167 -20.5 -166.5c0 -18 0.333008 -36 1 -54l2 -54v1z" />
    <glyph glyph-name="Thorn" unicode="&#xd9;" horiz-adv-x="543" 
d="M47 756h141.998v-536c0 -43.333 8.5 -71.333 25.5 -84s37.5 -19 61.5 -19c30.667 0 48.834 7.5 54.501 22.5s8.5 31.167 8.5 48.5v3v3v5v5v552h141v-567v-4.5v-3.5v-3.5v-3.5c0 -58 -11.167 -100.333 -33.5 -127s-47.166 -44 -74.499 -52
c-17.333 -5.33301 -34.166 -8.5 -50.499 -9.5s-29.5 -1.5 -39.5 -1.5h-3.5h-2.5h-2.5h-3.5c-12 0 -26.833 0.5 -44.5 1.5s-35.834 4.83301 -54.501 11.5c-30 9.33301 -57.5 29.333 -82.5 60s-38.833 79.667 -41.5 147v552v0zM156.998 953l103 47l102 -150l-79 -39l-126 142
v0z" />
    <glyph glyph-name="Eth" unicode="&#xda;" horiz-adv-x="543" 
d="M47 756h141.998v-536c0 -43.333 8.5 -71.333 25.5 -84s37.5 -19 61.5 -19c30.667 0 48.834 7.5 54.501 22.5s8.5 31.167 8.5 48.5v3v3v5v5v552h141v-567v-4.5v-3.5v-3.5v-3.5c0 -58 -11.167 -100.333 -33.5 -127s-47.166 -44 -74.499 -52
c-17.333 -5.33301 -34.166 -8.5 -50.499 -9.5s-29.5 -1.5 -39.5 -1.5h-3.5h-2.5h-2.5h-3.5c-12 0 -26.833 0.5 -44.5 1.5s-35.834 4.83301 -54.501 11.5c-30 9.33301 -57.5 29.333 -82.5 60s-38.833 79.667 -41.5 147v552v0zM172.998 850l95 142l102 -47l-126 -134l-71 39v0
z" />
    <glyph glyph-name="eth" unicode="&#xdb;" horiz-adv-x="543" 
d="M47 756h141.998v-536c0 -43.333 8.5 -71.333 25.5 -84s37.5 -19 61.5 -19c30.667 0 48.834 7.5 54.501 22.5s8.5 31.167 8.5 48.5v3v3v5v5v552h141v-567v-4.5v-3.5v-3.5v-3.5c0 -58 -11.167 -100.333 -33.5 -127s-47.166 -44 -74.499 -52
c-17.333 -5.33301 -34.166 -8.5 -50.499 -9.5s-29.5 -1.5 -39.5 -1.5h-3.5h-2.5h-2.5h-3.5c-12 0 -26.833 0.5 -44.5 1.5s-35.834 4.83301 -54.501 11.5c-30 9.33301 -57.5 29.333 -82.5 60s-38.833 79.667 -41.5 147v552v0zM180.998 795l-63 71l150 118l149 -126l-63 -63
l-86 71l-87 -71v0z" />
    <glyph glyph-name="Udieresis" unicode="&#xdc;" horiz-adv-x="543" 
d="M47 756h141.998v-536c0 -43.333 8.5 -71.333 25.5 -84s37.5 -19 61.5 -19c30.667 0 48.834 7.5 54.501 22.5s8.5 31.167 8.5 48.5v3v3v5v5v552h141v-567v-4.5v-3.5v-3.5v-3.5c0 -58 -11.167 -100.333 -33.5 -127s-47.166 -44 -74.499 -52
c-17.333 -5.33301 -34.166 -8.5 -50.499 -9.5s-29.5 -1.5 -39.5 -1.5h-3.5h-2.5h-2.5h-3.5c-12 0 -26.833 0.5 -44.5 1.5s-35.834 4.83301 -54.501 11.5c-30 9.33301 -57.5 29.333 -82.5 60s-38.833 79.667 -41.5 147v552v0zM109.998 890c0 22.667 7.66699 39.833 23 51.5
s32.333 17.5 51 17.5c19.333 0.666992 36.833 -5 52.5 -17s23.5 -29.667 23.5 -53c0 -25.333 -7.66699 -44.5 -23 -57.5s-32.333 -19.5 -51 -19.5c-18.667 -0.666992 -36 5.5 -52 18.5s-24 32.5 -24 58.5v1zM314.998 889.999c0 22.667 7.66699 39.833 23 51.5
s32.333 17.5 51 17.5c19.333 0.666992 36.833 -5 52.5 -17s23.5 -29.667 23.5 -53c0 -25.333 -7.66699 -44.5 -23 -57.5s-32.333 -19.5 -51 -19.5c-18.667 -0.666992 -36 5.5 -52 18.5s-24 32.5 -24 58.5v1z" />
    <glyph glyph-name="Yacute" unicode="&#xdd;" 
 />
    <glyph glyph-name="glyph236" unicode="&#xde;" horiz-adv-x="488" 
 />
    <glyph glyph-name="germandbls" unicode="&#xdf;" horiz-adv-x="480" 
d="M71 496l0.000976562 149.994c0 46.667 15.167 85.667 45.5 117s72.833 47 127.5 47h2h2h1h2c54.667 0 97.167 -21 127.5 -63s46.833 -88 49.5 -138v-5.5v-5.5c0 -31.333 -6 -61.333 -18 -90s-30.667 -51.334 -56 -68.001c39.333 -23.333 63.666 -55.666 72.999 -96.999
s14 -87.666 14 -138.999c-3.33301 -60 -15.666 -109.667 -36.999 -149s-62 -59 -122 -59c-6.66699 0 -13.834 0.333008 -21.501 1s-15.834 1.66699 -24.501 3v126c0.666992 -0.666992 1.33398 -1 2.00098 -1h2c0 -0.666992 0.333008 -1 1 -1h2
c19.333 -0.666992 33.333 10.5 42 33.5s13 49.167 13 78.5v6.5v6.5c-0.666992 32 -6 61.333 -16 88s-23 40.334 -39 41.001h-2h-2c-0.666992 -0.666992 -1.16699 -1 -1.5 -1h-1.5v127c17.333 -0.666992 28.666 5.33301 33.999 18s8 27.334 8 44.001
c0 4.66699 -0.166992 9.33398 -0.5 14.001s-0.5 9.33398 -0.5 14.001s-0.166992 9.33398 -0.5 14.001s-0.5 9 -0.5 13c0 22 -3.66699 38.333 -11 49s-15.333 16 -24 16c-9.33301 0 -17.666 -5.33301 -24.999 -16s-11 -27 -11 -49v-621h-134v386h-55v110h55v0z" />
    <glyph glyph-name="agrave" unicode="&#xe0;" horiz-adv-x="433" 
d="M260 496l133.999 -0.000976562v-496h-134v55c-11.333 -17.333 -23.5 -30.833 -36.5 -40.5s-26.167 -16.5 -39.5 -20.5l-11.5 -2c-3.66699 -0.666992 -7.5 -1 -11.5 -1c-34 -0.666992 -64.167 20.333 -90.5 63s-39.5 108.334 -39.5 197.001c0 86.667 12 150 36 190
s50.333 62.667 79 68c2.66699 0.666992 5.16699 1.16699 7.5 1.5s4.83301 0.5 7.5 0.5c22 0 42.333 -8 61 -24s31.334 -37 38.001 -63v72v0zM219.999 385.999c-20 -4 -34.334 -18.832 -43.001 -44.499s-13 -53.834 -13 -84.501v-5.5v-5.5c1.33301 -34 7 -65.333 17 -94
s23 -43 39 -43c17.333 0 30.833 14.667 40.5 44s14.834 61.333 15.501 96v3.5v2.5c0.666992 33.333 -3.33301 63.333 -12 90s-22 40 -40 40h-2h-2v1zM117.998 717l102 47l103 -150l-79 -39l-126 142v0z" />
    <glyph glyph-name="aacute" unicode="&#xe1;" horiz-adv-x="433" 
d="M260 496l133.999 -0.000976562v-496h-134v55c-11.333 -17.333 -23.5 -30.833 -36.5 -40.5s-26.167 -16.5 -39.5 -20.5l-11.5 -2c-3.66699 -0.666992 -7.5 -1 -11.5 -1c-34 -0.666992 -64.167 20.333 -90.5 63s-39.5 108.334 -39.5 197.001c0 86.667 12 150 36 190
s50.333 62.667 79 68c2.66699 0.666992 5.16699 1.16699 7.5 1.5s4.83301 0.5 7.5 0.5c22 0 42.333 -8 61 -24s31.334 -37 38.001 -63v72v0zM219.999 385.999c-20 -4 -34.334 -18.832 -43.001 -44.499s-13 -53.834 -13 -84.501v-5.5v-5.5c1.33301 -34 7 -65.333 17 -94
s23 -43 39 -43c17.333 0 30.833 14.667 40.5 44s14.834 61.333 15.501 96v3.5v2.5c0.666992 33.333 -3.33301 63.333 -12 90s-22 40 -40 40h-2h-2v1zM117.998 614l95 142l102 -47l-126 -134l-71 39v0z" />
    <glyph glyph-name="acircumflex" unicode="&#xe2;" horiz-adv-x="433" 
d="M260 496l133.999 -0.000976562v-496h-134v55c-11.333 -17.333 -23.5 -30.833 -36.5 -40.5s-26.167 -16.5 -39.5 -20.5l-11.5 -2c-3.66699 -0.666992 -7.5 -1 -11.5 -1c-34 -0.666992 -64.167 20.333 -90.5 63s-39.5 108.334 -39.5 197.001c0 86.667 12 150 36 190
s50.333 62.667 79 68c2.66699 0.666992 5.16699 1.16699 7.5 1.5s4.83301 0.5 7.5 0.5c22 0 42.333 -8 61 -24s31.334 -37 38.001 -63v72v0zM219.999 385.999c-20 -4 -34.334 -18.832 -43.001 -44.499s-13 -53.834 -13 -84.501v-5.5v-5.5c1.33301 -34 7 -65.333 17 -94
s23 -43 39 -43c17.333 0 30.833 14.667 40.5 44s14.834 61.333 15.501 96v3.5v2.5c0.666992 33.333 -3.33301 63.333 -12 90s-22 40 -40 40h-2h-2v1zM133.998 559l-63 71l149 118l150 -126l-63 -63l-87 71l-86 -71v0z" />
    <glyph glyph-name="atilde" unicode="&#xe3;" horiz-adv-x="433" 
d="M260 496l133.999 -0.000976562v-496h-134v55c-11.333 -17.333 -23.5 -30.833 -36.5 -40.5s-26.167 -16.5 -39.5 -20.5l-11.5 -2c-3.66699 -0.666992 -7.5 -1 -11.5 -1c-34 -0.666992 -64.167 20.333 -90.5 63s-39.5 108.334 -39.5 197.001c0 86.667 12 150 36 190
s50.333 62.667 79 68c2.66699 0.666992 5.16699 1.16699 7.5 1.5s4.83301 0.5 7.5 0.5c22 0 42.333 -8 61 -24s31.334 -37 38.001 -63v72v0zM219.999 385.999c-20 -4 -34.334 -18.832 -43.001 -44.499s-13 -53.834 -13 -84.501v-5.5v-5.5c1.33301 -34 7 -65.333 17 -94
s23 -43 39 -43c17.333 0 30.833 14.667 40.5 44s14.834 61.333 15.501 96v3.5v2.5c0.666992 33.333 -3.33301 63.333 -12 90s-22 40 -40 40h-2h-2v1zM46.998 591c0 -0.666992 0.666016 6.16504 1.99902 20.498s5.33301 30.5 12 48.5c6 17.333 15.5 33.166 28.5 47.499
s30.833 21.5 53.5 21.5c9.33301 0 19.833 -1.66699 31.5 -5s24.5 -8.66602 38.5 -15.999c2.66699 -1.33301 5.5 -2.5 8.5 -3.5s5.83301 -2.16699 8.5 -3.5c0.666992 -0.666992 1.33398 -1.16699 2.00098 -1.5s1.33398 -0.5 2.00098 -0.5
c6.66699 -3.33301 13.5 -6.16602 20.5 -8.49902s13.167 -3.5 18.5 -3.5c7.33301 0 13.5 3.16699 18.5 9.5s7.5 17.833 7.5 34.5l87 1c-5.33301 -51.333 -17.333 -88.666 -36 -111.999s-41.334 -35 -68.001 -35c-10.667 0 -21.667 1.66699 -33 5s-23.333 8.33301 -36 15
c-2 0.666992 -4.16699 1.5 -6.5 2.5s-4.5 1.83301 -6.5 2.5c-8 4 -15.333 7.33301 -22 10s-12.667 4 -18 4c-6.66699 0 -12.167 -2.33301 -16.5 -7s-7.5 -13.667 -9.5 -27l-87 1v0z" />
    <glyph glyph-name="adieresis" unicode="&#xe4;" horiz-adv-x="433" 
d="M260 496l133.999 -0.000976562v-496h-134v55c-11.333 -17.333 -23.5 -30.833 -36.5 -40.5s-26.167 -16.5 -39.5 -20.5l-11.5 -2c-3.66699 -0.666992 -7.5 -1 -11.5 -1c-34 -0.666992 -64.167 20.333 -90.5 63s-39.5 108.334 -39.5 197.001c0 86.667 12 150 36 190
s50.333 62.667 79 68c2.66699 0.666992 5.16699 1.16699 7.5 1.5s4.83301 0.5 7.5 0.5c22 0 42.333 -8 61 -24s31.334 -37 38.001 -63v72v0zM219.999 385.999c-20 -4 -34.334 -18.832 -43.001 -44.499s-13 -53.834 -13 -84.501v-5.5v-5.5c1.33301 -34 7 -65.333 17 -94
s23 -43 39 -43c17.333 0 30.833 14.667 40.5 44s14.834 61.333 15.501 96v3.5v2.5c0.666992 33.333 -3.33301 63.333 -12 90s-22 40 -40 40h-2h-2v1zM38.998 661c0 22.667 7.66699 40 23 52s32.333 18 51 18c19.333 0.666992 36.833 -5 52.5 -17s23.5 -30 23.5 -54
c0 -25.333 -7.66699 -44.333 -23 -57s-32.333 -19 -51 -19c-18.667 -0.666992 -36 5.5 -52 18.5s-24 32.167 -24 57.5v1zM243.998 661c0 22.667 7.66699 40 23 52s32.333 18 51 18c19.333 0.666992 36.833 -5 52.5 -17s23.5 -30 23.5 -54
c0 -25.333 -7.66699 -44.333 -23 -57s-32.333 -19 -51 -19c-18.667 -0.666992 -36 5.5 -52 18.5s-24 32.167 -24 57.5v1z" />
    <glyph glyph-name="aring" unicode="&#xe5;" horiz-adv-x="433" 
d="M260 496l133.999 -0.000976562v-496h-134v55c-11.333 -17.333 -23.5 -30.833 -36.5 -40.5s-26.167 -16.5 -39.5 -20.5l-11.5 -2c-3.66699 -0.666992 -7.5 -1 -11.5 -1c-34 -0.666992 -64.167 20.333 -90.5 63s-39.5 108.334 -39.5 197.001c0 86.667 12 150 36 190
s50.333 62.667 79 68c2.66699 0.666992 5.16699 1.16699 7.5 1.5s4.83301 0.5 7.5 0.5c22 0 42.333 -8 61 -24s31.334 -37 38.001 -63v72v0zM219.999 385.999c-20 -4 -34.334 -18.832 -43.001 -44.499s-13 -53.834 -13 -84.501v-5.5v-5.5c1.33301 -34 7 -65.333 17 -94
s23 -43 39 -43c17.333 0 30.833 14.667 40.5 44s14.834 61.333 15.501 96v3.5v2.5c0.666992 33.333 -3.33301 63.333 -12 90s-22 40 -40 40h-2h-2v1zM101.998 661c0 34.667 11.498 60.833 34.498 78.5s48.167 26.5 75.5 26.5h1.5h1.5c26.667 0 51.334 -9 74.001 -27
s34 -44.333 34 -79v-2v-1v-2v-2c0.666992 -36.667 -10.166 -64.167 -32.499 -82.5s-47.166 -27.833 -74.499 -28.5h-2.5h-3.5c-26.667 1.33301 -51.334 11.833 -74.001 31.5s-34 48.5 -34 86.5v1zM164.996 660.999c0 -16 4.83301 -28 14.5 -36s20.5 -12 32.5 -12
s23 3.83301 33 11.5s15 19.5 15 35.5c0 14 -4.83301 24.5 -14.5 31.5s-20.5 10.5 -32.5 10.5s-23 -3.5 -33 -10.5s-15 -17.5 -15 -31.5v1z" />
    <glyph glyph-name="Otilde" unicode="&#xe6;" horiz-adv-x="638" 
d="M71 496c2 0 4.16797 0.331055 6.50098 0.998047s4.83301 1.33398 7.5 2.00098c12.667 4 26.834 7.5 42.501 10.5s31.5 5.16699 47.5 6.5c3.33301 0.666992 6.66602 1 9.99902 1h10c29.333 0.666992 56.333 -5 81 -17s40.334 -34.667 47.001 -68l8.5 15.5
c3 5.66699 6.5 11.167 10.5 16.5c9.33301 14 21.833 26.667 37.5 38s36.167 17 61.5 17c64.667 -3.33301 110.167 -30.166 136.5 -80.499s39.5 -106.166 39.5 -167.499v-14.5c0 -5 -0.333008 -9.83301 -1 -14.5c0 -5.33301 -0.166992 -10.333 -0.5 -15
s-0.833008 -9.66699 -1.5 -15l-228 1v-40c0 -24 5 -42.833 15 -56.5s21 -21.5 33 -23.5c0.666992 -0.666992 1.66699 -1 3 -1h4c11.333 0 21.5 4.66699 30.5 14s14.5 23.666 16.5 42.999l118 1c-4 -60 -21 -102.667 -51 -128s-62.667 -38 -98 -38
c-37.333 0 -64.333 4.16699 -81 12.5s-28.667 17.833 -36 28.5c-2.66699 4 -5 8 -7 12s-4 7.66699 -6 11c-0.666992 0.666992 -1.33398 1.66699 -2.00098 3s-1.33398 2.33301 -2.00098 3c-9.33301 -16 -20.333 -29 -33 -39s-26 -17 -40 -21
c-9.33301 -4 -18.5 -6.66699 -27.5 -8s-17.5 -2 -25.5 -2c-58.667 3.33301 -101 20.166 -127 50.499s-39.333 65.166 -40 104.499v4c0 1.33301 0.333008 3 1 5v4v4c3.33301 51.333 19.5 88.333 48.5 111s62.5 34 100.5 34c12 0 24 -1 36 -3s24 -4.66699 36 -8v4.5
c0 1.66699 0.333008 3.16699 1 4.5v4v4c0 30.667 -6.16699 53.334 -18.5 68.001s-30.833 22.334 -55.5 23.001c-14 0 -30 -2.5 -48 -7.5s-38 -12.167 -60 -21.5v127v0zM213.001 196.998c-18.667 -2.66699 -32.167 -9.16895 -40.5 -19.502s-12.5 -21.833 -12.5 -34.5v-1.5
v-1.5c0 -13.333 4.83301 -25.666 14.5 -36.999s22.5 -17 38.5 -17c16.667 0 29.667 5.83301 39 17.5s14 24.5 14 38.5c0 12.667 -4.16699 24.334 -12.5 35.001s-21.833 17 -40.5 19v1zM386.001 298.996h110.001c0 5.33301 -0.166992 11.5 -0.5 18.5
s-1.16602 14.167 -2.49902 21.5c-2.66699 17.333 -7.83398 33.166 -15.501 47.499s-19.834 21.5 -36.501 21.5c-13.333 0 -23.833 -6 -31.5 -18s-13.5 -25.333 -17.5 -40c-2 -10.667 -3.5 -20.667 -4.5 -30s-1.5 -16.666 -1.5 -21.999v1z" />
    <glyph glyph-name="ccedilla" unicode="&#xe7;" horiz-adv-x="315" 
d="M244 -94l-102 -134l-71 39l86 134l87 -39v0zM291 134l0.000976562 -126c-16.667 -8.66699 -32.5 -15 -47.5 -19s-29.167 -6 -42.5 -6c-56 0 -99 27.333 -129 82s-45.333 115.334 -46 182.001v2.5v3.5c0.666992 65.333 17 125.333 49 180s81.333 82 148 82
c11.333 0 23.333 -1 36 -3s26 -5 40 -9v-125c-8.66699 5.33301 -17.167 9.33301 -25.5 12s-16.166 4 -23.499 4c-26 0 -45.5 -14.833 -58.5 -44.5s-19.5 -62.167 -19.5 -97.5c-0.666992 -34.667 5.16602 -66.334 17.499 -95.001s30.166 -43 53.499 -43
c7.33301 0 15 1.5 23 4.5s16.333 7.83301 25 14.5v1z" />
    <glyph glyph-name="egrave" unicode="&#xe8;" horiz-adv-x="417" 
d="M268 157l118.003 0.000976562v-3.5c0 -1 0.333008 -2.16699 1 -3.5v-2.5v-3.5c0 -6 -0.5 -12.167 -1.5 -18.5s-2.5 -12.833 -4.5 -19.5c-8.66699 -29.333 -25.834 -56.166 -51.501 -80.499s-56.834 -38.166 -93.501 -41.499h-4
c-1.33301 0 -2.66602 -0.333008 -3.99902 -1h-4h-4c-64.667 0 -112.834 26.667 -144.501 80s-47.5 113 -47.5 179v4v5c0.666992 66.667 17.334 128 50.001 184s80 84 142 84c52.667 0 95.5 -17.833 128.5 -53.5s49.5 -94.167 49.5 -175.5
c0 -10.667 -0.333008 -21.834 -1 -33.501s-1.66699 -24.167 -3 -37.5l-229 1c-0.666992 -5.33301 -1 -10 -1 -14v-11c-0.666992 -32.667 4.66602 -56.834 15.999 -72.501s24 -24.834 38 -27.501h2.5h2.5c11.333 0 21.666 4.66699 30.999 14s14 22.333 14 39v2v2v2v2v1z
M165.003 307.001l110.998 -0.00390625c0.666992 2.66699 1 5.83398 1 9.50098v10.5c0.666992 27.333 -4.66602 48.333 -15.999 63s-23.666 22.334 -36.999 23.001h-1.5h-1.5c-14 -1.33301 -26.833 -10.666 -38.5 -27.999s-17.5 -43.666 -17.5 -78.999v1zM102.001 716.997
l103 47l102 -150l-79 -39l-126 142v0z" />
    <glyph glyph-name="eacute" unicode="&#xe9;" horiz-adv-x="417" 
d="M268 157l118.003 0.000976562v-3.5c0 -1 0.333008 -2.16699 1 -3.5v-2.5v-3.5c0 -6 -0.5 -12.167 -1.5 -18.5s-2.5 -12.833 -4.5 -19.5c-8.66699 -29.333 -25.834 -56.166 -51.501 -80.499s-56.834 -38.166 -93.501 -41.499h-4
c-1.33301 0 -2.66602 -0.333008 -3.99902 -1h-4h-4c-64.667 0 -112.834 26.667 -144.501 80s-47.5 113 -47.5 179v4v5c0.666992 66.667 17.334 128 50.001 184s80 84 142 84c52.667 0 95.5 -17.833 128.5 -53.5s49.5 -94.167 49.5 -175.5
c0 -10.667 -0.333008 -21.834 -1 -33.501s-1.66699 -24.167 -3 -37.5l-229 1c-0.666992 -5.33301 -1 -10 -1 -14v-11c-0.666992 -32.667 4.66602 -56.834 15.999 -72.501s24 -24.834 38 -27.501h2.5h2.5c11.333 0 21.666 4.66699 30.999 14s14 22.333 14 39v2v2v2v2v1z
M165.003 307.001l110.998 -0.00390625c0.666992 2.66699 1 5.83398 1 9.50098v10.5c0.666992 27.333 -4.66602 48.333 -15.999 63s-23.666 22.334 -36.999 23.001h-1.5h-1.5c-14 -1.33301 -26.833 -10.666 -38.5 -27.999s-17.5 -43.666 -17.5 -78.999v1zM110.001 613.997
l95 142l102 -47l-126 -134l-71 39v0z" />
    <glyph glyph-name="ecircumflex" unicode="&#xea;" horiz-adv-x="417" 
d="M260 157l118.004 0.000976562v-3.5c0 -1 0.333008 -2.16699 1 -3.5v-2.5v-3.5c0 -6 -0.5 -12.167 -1.5 -18.5s-2.5 -12.833 -4.5 -19.5c-8.66699 -29.333 -25.834 -56.166 -51.501 -80.499s-56.834 -38.166 -93.501 -41.499h-4
c-1.33301 0 -2.66602 -0.333008 -3.99902 -1h-4h-4c-64.667 0 -112.834 26.667 -144.501 80s-47.5 113 -47.5 179v4v5c1.33301 66.667 18.333 128 51 184s80 84 142 84c52 0 94.5 -17.833 127.5 -53.5s49.5 -94.167 49.5 -175.5c0 -10.667 -0.333008 -21.834 -1 -33.501
s-1.66699 -24.167 -3 -37.5l-229 1c-0.666992 -5.33301 -1 -10 -1 -14v-11c-0.666992 -32.667 4.66602 -56.834 15.999 -72.501s24 -24.834 38 -27.501h2.5h2.5c11.333 0 21.666 4.66699 30.999 14s14 22.333 14 39v2v2v2v2v1zM157.004 307.001l110.998 -0.00390625
c0.666992 2.66699 1 5.83398 1 9.50098v10.5c0.666992 27.333 -4.66602 48.333 -15.999 63s-23.666 22.334 -36.999 23.001h-1.5h-1.5c-14 -1.33301 -26.833 -10.666 -38.5 -27.999s-17.5 -43.666 -17.5 -78.999v1zM118.002 566.997l-63 71l150 118l149 -126l-63 -63l-86 71
l-87 -71v0z" />
    <glyph glyph-name="edieresis" unicode="&#xeb;" horiz-adv-x="417" 
d="M268 157l118.003 0.000976562v-3.5c0 -1 0.333008 -2.16699 1 -3.5v-2.5v-3.5c0 -6 -0.5 -12.167 -1.5 -18.5s-2.5 -12.833 -4.5 -19.5c-8.66699 -29.333 -25.834 -56.166 -51.501 -80.499s-56.834 -38.166 -93.501 -41.499h-4
c-1.33301 0 -2.66602 -0.333008 -3.99902 -1h-4h-4c-64.667 0 -112.834 26.667 -144.501 80s-47.5 113 -47.5 179v4v5c0.666992 66.667 17.334 128 50.001 184s80 84 142 84c52.667 0 95.5 -17.833 128.5 -53.5s49.5 -94.167 49.5 -175.5
c0 -10.667 -0.333008 -21.834 -1 -33.501s-1.66699 -24.167 -3 -37.5l-229 1c-0.666992 -5.33301 -1 -10 -1 -14v-11c-0.666992 -32.667 4.66602 -56.834 15.999 -72.501s24 -24.834 38 -27.501h2.5h2.5c11.333 0 21.666 4.66699 30.999 14s14 22.333 14 39v2v2v2v2v1z
M165.003 307.001l110.998 -0.00390625c0.666992 2.66699 1 5.83398 1 9.50098v10.5c0.666992 27.333 -4.66602 48.333 -15.999 63s-23.666 22.334 -36.999 23.001h-1.5h-1.5c-14 -1.33301 -26.833 -10.666 -38.5 -27.999s-17.5 -43.666 -17.5 -78.999v1zM39.001 660.997
c0 22.667 7.66699 40 23 52s32.333 18 51 18c19.333 0.666992 36.833 -5 52.5 -17s23.5 -30 23.5 -54c0 -25.333 -7.66699 -44.333 -23 -57s-32.333 -19 -51 -19c-18.667 -0.666992 -36 5.5 -52 18.5s-24 32.167 -24 57.5v1zM244.001 660.997c0 22.667 7.66699 40 23 52
s32.333 18 51 18c19.333 0.666992 36.833 -5 52.5 -17s23.5 -30 23.5 -54c0 -25.333 -7.66699 -44.333 -23 -57s-32.333 -19 -51 -19c-18.667 -0.666992 -36 5.5 -52 18.5s-24 32.167 -24 57.5v1z" />
    <glyph glyph-name="igrave" unicode="&#xec;" horiz-adv-x="213" 
d="M31 496h142v-496h-142v496v0zM8 717l102 47l103 -150l-79 -39l-126 142v0z" />
    <glyph glyph-name="iacute" unicode="&#xed;" horiz-adv-x="213" 
d="M31 496h142v-496h-142v496v0zM39 606l95 142l102 -47l-126 -134l-71 39v0z" />
    <glyph glyph-name="icircumflex" unicode="&#xee;" horiz-adv-x="213" 
d="M31 496h142v-496h-142v496v0zM39 567l-63 71l150 118l150 -126l-63 -63l-87 71l-87 -71v0z" />
    <glyph glyph-name="idieresis" unicode="&#xef;" horiz-adv-x="213" 
d="M31 496h142v-496h-142v496v0zM-55 661c0.666992 22.667 8.66699 40 24 52s32 18 50 18h1.5h1.5c18 0 34.5 -6 49.5 -18s22.5 -29.667 22.5 -53c0 -25.333 -7.66699 -44.333 -23 -57s-32.333 -19 -51 -19h-1.5h-1.5c-17.333 0 -33.5 6.5 -48.5 19.5
s-22.5 31.833 -22.5 56.5zM150 661c0 22.667 7.66699 40 23 52s32.333 18 51 18h1.5h1.5c18 0 34.5 -6 49.5 -18s22.5 -29.667 22.5 -53c0 -25.333 -7.66699 -44.333 -23 -57s-32.333 -19 -51 -19h-1.5h-1.5c-18 0 -34.5 6.5 -49.5 19.5s-22.5 31.833 -22.5 56.5v1z" />
    <glyph glyph-name="glyph233" unicode="&#xf0;" horiz-adv-x="433" 
 />
    <glyph glyph-name="ntilde" unicode="&#xf1;" horiz-adv-x="425" 
d="M31 0l0.000976562 503.998h150v-71c7.33301 22.667 21.166 42.167 41.499 58.5s41.833 26.5 64.5 30.5c2.66699 0 5.5 0.166992 8.5 0.5s5.83301 0.5 8.5 0.5c23.333 0 44.166 -9.33301 62.499 -28s27.5 -50 27.5 -94v-401h-150v346c0 11.333 -2.5 19.833 -7.5 25.5
s-11.167 8.83398 -18.5 9.50098h-3.5c-1 0 -2.16699 -0.333008 -3.5 -1c-7.33301 -2 -14.166 -6.66699 -20.499 -14s-9.5 -16.666 -9.5 -27.999v-338h-150v0zM39.001 605.998c0 -0.666992 0.666992 6.33105 2 20.998s5.33301 30.667 12 48s16.334 33.333 29.001 48
s30.334 22 53.001 22c9.33301 0 19.833 -1.83301 31.5 -5.5s24.5 -9.16699 38.5 -16.5c2.66699 -0.666992 5.16699 -1.66699 7.5 -3s4.83301 -2.33301 7.5 -3c0.666992 -0.666992 1.16699 -1 1.5 -1h0.5c7.33301 -3.33301 14.666 -6.33301 21.999 -9s14 -4 20 -4
c8 -0.666992 14.5 2.33301 19.5 9s7.5 18.334 7.5 35.001l87 1c-5.33301 -51.333 -17.333 -88.666 -36 -111.999s-41.334 -35 -68.001 -35c-10.667 0 -21.667 1.66699 -33 5s-23.333 8.33301 -36 15c-2 0.666992 -4.16699 1.5 -6.5 2.5s-4.5 1.83301 -6.5 2.5
c-8 4 -15.333 7.33301 -22 10s-12.667 4 -18 4c-6.66699 0 -12.167 -2.5 -16.5 -7.5s-7.5 -14.167 -9.5 -27.5l-87 1v0z" />
    <glyph glyph-name="ograve" unicode="&#xf2;" horiz-adv-x="433" 
d="M31 268c0 94 18.833 160.667 56.5 200s81.834 59 132.501 59c55.333 0 102 -20.667 140 -62s57 -107.333 57 -198c-4 -98.667 -22.333 -170.5 -55 -215.5s-82.334 -67.5 -149.001 -67.5c-51.333 0 -94.5 21.5 -129.5 64.5s-52.5 115.833 -52.5 218.5v1zM220 394
c-16.667 -0.666992 -29.1689 -15.001 -37.502 -43.001s-12.5 -59 -12.5 -93v-4v-4c0.666992 -35.333 5.33398 -67.666 14.001 -96.999s20.667 -44 36 -44s27.333 14.833 36 44.5s13.334 62.167 14.001 97.5v3.5v2.5c0 34.667 -4 66 -12 94s-20.667 42 -38 42v1z
M109.998 716.999l103 47l102 -150l-79 -39l-126 142v0z" />
    <glyph glyph-name="oacute" unicode="&#xf3;" horiz-adv-x="433" 
d="M31 268c0 94 18.833 160.667 56.5 200s81.834 59 132.501 59c55.333 0 102 -20.667 140 -62s57 -107.333 57 -198c-4 -98.667 -22.333 -170.5 -55 -215.5s-82.334 -67.5 -149.001 -67.5c-51.333 0 -94.5 21.5 -129.5 64.5s-52.5 115.833 -52.5 218.5v1zM220 394
c-16.667 -0.666992 -29.1689 -15.001 -37.502 -43.001s-12.5 -59 -12.5 -93v-4v-4c0.666992 -35.333 5.33398 -67.666 14.001 -96.999s20.667 -44 36 -44s27.333 14.833 36 44.5s13.334 62.167 14.001 97.5v3.5v2.5c0 34.667 -4 66 -12 94s-20.667 42 -38 42v1z
M156.998 613.999l95 142l102 -47l-126 -134l-71 39v0z" />
    <glyph glyph-name="ocircumflex" unicode="&#xf4;" horiz-adv-x="433" 
d="M31 268c0 94 18.833 160.667 56.5 200s81.834 59 132.501 59c55.333 0 102 -20.667 140 -62s57 -107.333 57 -198c-4 -98.667 -22.333 -170.5 -55 -215.5s-82.334 -67.5 -149.001 -67.5c-51.333 0 -94.5 21.5 -129.5 64.5s-52.5 115.833 -52.5 218.5v1zM220 394
c-16.667 -0.666992 -29.1689 -15.001 -37.502 -43.001s-12.5 -59 -12.5 -93v-4v-4c0.666992 -35.333 5.33398 -67.666 14.001 -96.999s20.667 -44 36 -44s27.333 14.833 36 44.5s13.334 62.167 14.001 97.5v3.5v2.5c0 34.667 -4 66 -12 94s-20.667 42 -38 42v1z
M133.998 566.999l-63 71l149 118l150 -126l-63 -63l-87 71l-86 -71v0z" />
    <glyph glyph-name="otilde" unicode="&#xf5;" horiz-adv-x="433" 
d="M31 268c0 94 18.833 160.667 56.5 200s81.834 59 132.501 59c55.333 0 102 -20.667 140 -62s57 -107.333 57 -198c-4 -98.667 -22.333 -170.5 -55 -215.5s-82.334 -67.5 -149.001 -67.5c-51.333 0 -94.5 21.5 -129.5 64.5s-52.5 115.833 -52.5 218.5v1zM220 394
c-16.667 -0.666992 -29.1689 -15.001 -37.502 -43.001s-12.5 -59 -12.5 -93v-4v-4c0.666992 -35.333 5.33398 -67.666 14.001 -96.999s20.667 -44 36 -44s27.333 14.833 36 44.5s13.334 62.167 14.001 97.5v3.5v2.5c0 34.667 -4 66 -12 94s-20.667 42 -38 42v1z
M46.998 613.999c0 -0.666992 0.666992 6.33105 2 20.998s5.33301 30.667 12 48s16.334 33.333 29.001 48s30.334 22 53.001 22c9.33301 0 19.833 -1.83301 31.5 -5.5s24.5 -9.16699 38.5 -16.5c2.66699 -0.666992 5.16699 -1.66699 7.5 -3s4.83301 -2.33301 7.5 -3
c0.666992 -0.666992 1.16699 -1 1.5 -1h0.5c7.33301 -3.33301 14.666 -6.33301 21.999 -9s14 -4 20 -4c8 -0.666992 14.5 2.33301 19.5 9s7.5 18.334 7.5 35.001l87 1c-5.33301 -51.333 -17.333 -88.666 -36 -111.999s-41.334 -35 -68.001 -35
c-10.667 0 -21.667 1.66699 -33 5s-23.333 8.33301 -36 15c-2 0.666992 -4.16699 1.5 -6.5 2.5s-4.5 1.83301 -6.5 2.5c-8 4 -15.333 7.33301 -22 10s-12.667 4 -18 4c-6.66699 0 -12.167 -2.5 -16.5 -7.5s-7.5 -14.167 -9.5 -27.5l-87 1v0z" />
    <glyph glyph-name="odieresis" unicode="&#xf6;" horiz-adv-x="433" 
d="M31 268c0 94 18.833 160.667 56.5 200s81.834 59 132.501 59c55.333 0 102 -20.667 140 -62s57 -107.333 57 -198c-4 -98.667 -22.333 -170.5 -55 -215.5s-82.334 -67.5 -149.001 -67.5c-51.333 0 -94.5 21.5 -129.5 64.5s-52.5 115.833 -52.5 218.5v1zM220 394
c-16.667 -0.666992 -29.1689 -15.001 -37.502 -43.001s-12.5 -59 -12.5 -93v-4v-4c0.666992 -35.333 5.33398 -67.666 14.001 -96.999s20.667 -44 36 -44s27.333 14.833 36 44.5s13.334 62.167 14.001 97.5v3.5v2.5c0 34.667 -4 66 -12 94s-20.667 42 -38 42v1z
M54.998 660.999c0 22.667 7.66699 40 23 52s32.333 18 51 18c19.333 0.666992 36.833 -5 52.5 -17s23.5 -30 23.5 -54c0 -25.333 -7.66699 -44.333 -23 -57s-32.333 -19 -51 -19c-18.667 -0.666992 -36 5.5 -52 18.5s-24 32.167 -24 57.5v1zM259.998 660.999
c0 22.667 7.66699 40 23 52s32.333 18 51 18h1.5h1.5c18 0 34.5 -6 49.5 -18s22.5 -29.667 22.5 -53c0 -25.333 -7.66699 -44.333 -23 -57s-32.333 -19 -51 -19h-1.5h-1.5c-18 0 -34.5 6.5 -49.5 19.5s-22.5 31.833 -22.5 56.5v1z" />
    <glyph glyph-name="Aacute" unicode="&#xf7;" 
 />
    <glyph glyph-name="OE" unicode="&#xf8;" horiz-adv-x="433" 
d="M71 79c-12.667 16 -22.667 39.167 -30 69.5s-11.333 62.833 -12 97.5c0 7.33301 0.166992 14.833 0.5 22.5s0.833008 15.167 1.5 22.5c3.33301 32 10 63.333 20 94s24.333 57 43 79c17.333 19.333 37 34 59 44s44.333 15 67 15c18 0 35.833 -3 53.5 -9
s34.167 -15 49.5 -27l31 48l48 -39l-32 -55c15.333 -23.333 26.5 -49.5 33.5 -78.5s10.5 -60.167 10.5 -93.5c0 -18.667 -1 -38 -3 -58s-5 -40.667 -9 -62c-10.667 -49.333 -32 -88.833 -64 -118.5s-69.333 -44.5 -112 -44.5c-18 0 -36.833 3 -56.5 9s-39.5 15.333 -59.5 28
l-31 -47l-48 40l40 63v0zM220 386c-18.667 -0.666992 -32.501 -14.167 -41.501 -40.5s-13.833 -55.833 -14.5 -88.5v-2.5v-3.5c0.666992 -33.333 5.83398 -64 15.501 -92s23.167 -42 40.5 -42s30 13.5 38 40.5s12 56.833 12 89.5v1.5v1.5c0 33.333 -4 64 -12 92
s-19.667 42.333 -35 43h-1.5h-1.5v1z" />
    <glyph glyph-name="ugrave" unicode="&#xf9;" horiz-adv-x="425" 
d="M31 504l150 0.00195312v-331c0 -18.667 3.33301 -32.334 10 -41.001s14 -13 22 -13c7.33301 0 14.333 4.33301 21 13s10 22 10 40v332h150v-331c0 -62 -19 -108.833 -57 -140.5s-79.667 -47.834 -125 -48.501h-1.5h-1.5c-44.667 0 -85.5 15.333 -122.5 46
s-55.5 78 -55.5 142v332v0zM118 717.002l102 47l103 -150l-79 -39l-126 142v0z" />
    <glyph glyph-name="uacute" unicode="&#xfa;" horiz-adv-x="425" 
d="M31 504l150 0.00195312v-331c0 -18.667 3.33301 -32.334 10 -41.001s14 -13 22 -13c7.33301 0 14.333 4.33301 21 13s10 22 10 40v332h150v-331c0 -62 -19 -108.833 -57 -140.5s-79.667 -47.834 -125 -48.501h-1.5h-1.5c-44.667 0 -85.5 15.333 -122.5 46
s-55.5 78 -55.5 142v332v0zM142 614.002l94 142l103 -47l-126 -134l-71 39v0z" />
    <glyph glyph-name="ucircumflex" unicode="&#xfb;" horiz-adv-x="425" 
d="M31 504l150 0.00195312v-331c0 -18.667 3.33301 -32.334 10 -41.001s14 -13 22 -13c7.33301 0 14.333 4.33301 21 13s10 22 10 40v332h150v-331c0 -62 -19 -108.833 -57 -140.5s-79.667 -47.834 -125 -48.501h-1.5h-1.5c-44.667 0 -85.5 15.333 -122.5 46
s-55.5 78 -55.5 142v332v0zM142 575.002l-63 71l149 118l150 -126l-63 -63l-87 71l-86 -71v0z" />
    <glyph glyph-name="udieresis" unicode="&#xfc;" horiz-adv-x="425" 
d="M31 504l150 0.00195312v-331c0 -18.667 3.33301 -32.334 10 -41.001s14 -13 22 -13c7.33301 0 14.333 4.33301 21 13s10 22 10 40v332h150v-331c0 -62 -19 -108.833 -57 -140.5s-79.667 -47.834 -125 -48.501h-1.5h-1.5c-44.667 0 -85.5 15.333 -122.5 46
s-55.5 78 -55.5 142v332v0zM47 654.002c0 22.667 7.66699 39.833 23 51.5s32.333 17.5 51 17.5c19.333 0.666992 36.833 -5 52.5 -17s23.5 -29.667 23.5 -53c0 -25.333 -7.66699 -44.5 -23 -57.5s-32.333 -19.5 -51 -19.5c-18.667 -0.666992 -36 5.5 -52 18.5
s-24 32.5 -24 58.5v1zM252 654.001c0 22.667 7.66699 39.833 23 51.5s32.333 17.5 51 17.5c19.333 0.666992 36.833 -5 52.5 -17s23.5 -29.667 23.5 -53c0 -25.333 -7.66699 -44.5 -23 -57.5s-32.333 -19.5 -51 -19.5c-18.667 -0.666992 -36 5.5 -52 18.5s-24 32.5 -24 58.5
v1z" />
    <glyph glyph-name="yacute" unicode="&#xfd;" 
 />
    <glyph glyph-name="glyph237" unicode="&#xfe;" horiz-adv-x="433" 
 />
    <glyph glyph-name="Egrave" unicode="&#xff;" horiz-adv-x="449" 
d="M157 16l-141 488h141l63 -291l71 291h142l-220 -756h-142l86 268v0zM55 669c0 22.667 7.66699 40 23 52s32.333 18 51 18c19.333 0.666992 36.833 -5 52.5 -17s23.5 -30 23.5 -54c0 -25.333 -7.66699 -44.333 -23 -57s-32.333 -19 -51 -19
c-18.667 -0.666992 -36 5.5 -52 18.5s-24 32.167 -24 57.5v1zM260 669c0 22.667 7.66699 40 23 52s32.333 18 51 18h1.5h1.5c18 0 34.5 -6 49.5 -18s22.5 -29.667 22.5 -53c0 -25.333 -7.66699 -44.333 -23 -57s-32.333 -19 -51 -19h-1.5h-1.5c-18 0 -34.5 6.5 -49.5 19.5
s-22.5 31.833 -22.5 56.5v1z" />
    <glyph glyph-name="Abreve" unicode="&#x102;" 
 />
    <glyph glyph-name="abreve" unicode="&#x103;" 
 />
    <glyph glyph-name="Aogonek" unicode="&#x104;" 
 />
    <glyph glyph-name="aogonek" unicode="&#x105;" 
 />
    <glyph glyph-name="Cacute" unicode="&#x106;" 
 />
    <glyph glyph-name="cacute" unicode="&#x107;" 
 />
    <glyph glyph-name="Ccaron" unicode="&#x10c;" 
 />
    <glyph glyph-name="ccaron" unicode="&#x10d;" 
 />
    <glyph glyph-name="Dcaron" unicode="&#x10e;" 
 />
    <glyph glyph-name="dcaron" unicode="&#x10f;" 
 />
    <glyph glyph-name="Dcroat" unicode="&#x110;" 
 />
    <glyph glyph-name="dcroat" unicode="&#x111;" 
 />
    <glyph glyph-name="Eogonek" unicode="&#x118;" 
 />
    <glyph glyph-name="eogonek" unicode="&#x119;" 
 />
    <glyph glyph-name="Ecaron" unicode="&#x11a;" 
 />
    <glyph glyph-name="ecaron" unicode="&#x11b;" 
 />
    <glyph glyph-name="Gbreve" unicode="&#x11e;" 
 />
    <glyph glyph-name="gbreve" unicode="&#x11f;" 
 />
    <glyph glyph-name="Idotaccent" unicode="&#x130;" 
 />
    <glyph glyph-name="thorn" unicode="&#x131;" horiz-adv-x="213" 
d="M31 496h142v-496h-142v496v0z" />
    <glyph glyph-name="Lacute" unicode="&#x139;" 
 />
    <glyph glyph-name="lacute" unicode="&#x13a;" 
 />
    <glyph glyph-name="Lcaron" unicode="&#x13d;" 
 />
    <glyph glyph-name="lcaron" unicode="&#x13e;" 
 />
    <glyph glyph-name="Ldot" unicode="&#x13f;" 
 />
    <glyph glyph-name="ldot" unicode="&#x140;" 
 />
    <glyph glyph-name="glyph225" unicode="&#x141;" horiz-adv-x="500" 
 />
    <glyph glyph-name="glyph226" unicode="&#x142;" horiz-adv-x="500" 
 />
    <glyph glyph-name="Nacute" unicode="&#x143;" 
 />
    <glyph glyph-name="nacute" unicode="&#x144;" 
 />
    <glyph glyph-name="Ncaron" unicode="&#x147;" 
 />
    <glyph glyph-name="ncaron" unicode="&#x148;" 
 />
    <glyph glyph-name="Ohungarumlaut" unicode="&#x150;" 
 />
    <glyph glyph-name="ohungarumlaut" unicode="&#x151;" 
 />
    <glyph glyph-name="fi" unicode="&#x152;" horiz-adv-x="748" 
d="M394 764l315 -0.00195312v-142h-158v-165h142v-134h-142v-181h158v-142h-307v63c-8.66699 -12 -18 -22.167 -28 -30.5s-20 -15.166 -30 -20.499c-14.667 -8 -28.667 -13.333 -42 -16s-24.666 -4 -33.999 -4h-2h-2h-2h-2c-62.667 0 -109.834 21.667 -141.501 65
s-54.167 91.333 -67.5 144c-8 34 -13.333 66.833 -16 98.5s-4 57.5 -4 77.5s0.833008 46.167 2.5 78.5s6.83398 65.833 15.501 100.5c12 52.667 35 101 69 145s86.667 67.333 158 70c8 0 17.167 -0.666992 27.5 -2s21.166 -3.66602 32.499 -6.99902c10.667 -4 21 -9 31 -15
s19 -14 27 -24v41v0zM299 637.998c-36.667 -2.66699 -64 -30.001 -82 -82.001s-27 -109.333 -27 -172v-1.5v-1.5c0 -64 9.16699 -122.667 27.5 -176s45.5 -80 81.5 -80c35.333 0 61.333 25.833 78 77.5s25.334 108.834 26.001 171.501v4v5
c-0.666992 63.333 -9.83398 121.5 -27.501 174.5s-43.167 79.5 -76.5 79.5v1z" />
    <glyph glyph-name="fl" unicode="&#x153;" horiz-adv-x="654" 
d="M386 213c0 -38.667 5.33203 -68.167 15.999 -88.5s22.334 -32.833 35.001 -37.5c2 -1.33301 4.16699 -2.16602 6.5 -2.49902s4.5 -0.5 6.5 -0.5c10 0 18.833 4.83301 26.5 14.5s11.5 23.167 11.5 40.5v4.5v5.5l110 1c-2 -58.667 -18.333 -100.334 -49 -125.001
s-64.334 -37.334 -101.001 -38.001h-1.5h-1.5c-26.667 0 -52.167 5.33301 -76.5 16s-42.166 25 -53.499 43c-15.333 -18.667 -32.833 -32.834 -52.5 -42.501s-40.167 -14.834 -61.5 -15.501h-4h-4c-42.667 2.66699 -81.5 25.834 -116.5 69.501s-52.5 110.834 -52.5 201.501
c2 83.333 19.667 144.833 53 184.5s69.666 62.167 108.999 67.5c3.33301 0.666992 6.83301 1.16699 10.5 1.5s7.16699 0.5 10.5 0.5c23.333 0.666992 45.333 -4.16602 66 -14.499s37.334 -24.5 50.001 -42.5c14.667 16 31 28.5 49 37.5s36.333 14.167 55 15.5
c2 0.666992 4 1 6 1h6c43.333 0.666992 82.333 -19.5 117 -60.5s52 -104.167 52 -189.5c0 -7.33301 -0.166992 -15 -0.5 -23s-0.833008 -16.333 -1.5 -25l-220 1v0zM212.999 394c-15.333 -0.666992 -27.3311 -15.832 -35.998 -45.499s-13.334 -62.167 -14.001 -97.5v-3.5
v-2.5c0 -34.667 4 -66 12 -94s20.667 -42 38 -42s30 14 38 42s12 59 12 93v4v4c-0.666992 35.333 -5.33398 67.666 -14.001 96.999s-20.667 44 -36 44v1zM386.001 299.002l110 0.00195312c1.33301 5.33301 2.16602 10.666 2.49902 15.999s0.5 10.333 0.5 15
c0 24 -4.83301 42.333 -14.5 55s-20.834 19.334 -33.501 20.001h-4c-1.33301 0 -2.66602 -0.333008 -3.99902 -1c-13.333 -2.66699 -25.666 -12.834 -36.999 -30.501s-18 -42.834 -20 -75.501v1z" />
    <glyph glyph-name="Racute" unicode="&#x154;" 
 />
    <glyph glyph-name="racute" unicode="&#x155;" 
 />
    <glyph glyph-name="Rcaron" unicode="&#x158;" 
 />
    <glyph glyph-name="rcaron" unicode="&#x159;" 
 />
    <glyph glyph-name="Sacute" unicode="&#x15a;" 
 />
    <glyph glyph-name="sacute" unicode="&#x15b;" 
 />
    <glyph glyph-name="Scedilla" unicode="&#x15e;" 
 />
    <glyph glyph-name="scedilla" unicode="&#x15f;" 
 />
    <glyph glyph-name="glyph227" unicode="&#x160;" horiz-adv-x="500" 
 />
    <glyph glyph-name="glyph228" unicode="&#x161;" horiz-adv-x="500" 
 />
    <glyph glyph-name="Tcommaaccent" unicode="&#x162;" 
 />
    <glyph glyph-name="tcommaaccent" unicode="&#x163;" 
 />
    <glyph glyph-name="Tcaron" unicode="&#x164;" 
 />
    <glyph glyph-name="tcaron" unicode="&#x165;" 
 />
    <glyph glyph-name="Uring" unicode="&#x16e;" 
 />
    <glyph glyph-name="uring" unicode="&#x16f;" 
 />
    <glyph glyph-name="Uhungarumlaut" unicode="&#x170;" 
 />
    <glyph glyph-name="uhungarumlaut" unicode="&#x171;" 
 />
    <glyph glyph-name="Iacute" unicode="&#x178;" horiz-adv-x="500" 
 />
    <glyph glyph-name="Zacute" unicode="&#x179;" 
 />
    <glyph glyph-name="zacute" unicode="&#x17a;" 
 />
    <glyph glyph-name="Zdotaccent" unicode="&#x17b;" 
 />
    <glyph glyph-name="zdotaccent" unicode="&#x17c;" 
 />
    <glyph glyph-name="Zcaron" unicode="&#x17d;" 
 />
    <glyph glyph-name="zcaron" unicode="&#x17e;" 
 />
    <glyph glyph-name="quotedblright" unicode="&#x192;" horiz-adv-x="189" 
d="M71 0v803h110v-803h-110v0z" />
    <glyph glyph-name="uni02BA" unicode="&#x2ba;" horiz-adv-x="500" 
 />
    <glyph glyph-name="arrowright" unicode="&#x2c6;" horiz-adv-x="299" 
d="M-16 598c0.666992 -0.666992 1.66602 6.33008 2.99902 20.9971s5.33301 30.667 12 48c5.33301 17.333 14.5 33.333 27.5 48s30.833 22 53.5 22c10 0 20.833 -1.66699 32.5 -5s24.167 -8.66602 37.5 -15.999c2.66699 -1.33301 5.5 -2.5 8.5 -3.5
s5.83301 -2.16699 8.5 -3.5c0.666992 -0.666992 1.33398 -1.16699 2.00098 -1.5s1.33398 -0.5 2.00098 -0.5c6.66699 -3.33301 13.5 -6.16602 20.5 -8.49902s13.167 -3.5 18.5 -3.5c7.33301 0 13.5 3.16699 18.5 9.5s7.5 17.833 7.5 34.5l87 1
c-5.33301 -51.333 -17.333 -88.666 -36 -111.999s-41.334 -35 -68.001 -35c-10.667 0 -21.667 1.66699 -33 5s-23.333 8.33301 -36 15c-2 0.666992 -4.16699 1.5 -6.5 2.5s-4.5 1.83301 -6.5 2.5c-8 4 -15.333 7.33301 -22 10s-12.667 4 -18 4
c-6.66699 0 -12.167 -2.5 -16.5 -7.5s-7.5 -14.167 -9.5 -27.5l-87 1v0z" />
    <glyph glyph-name="glyph224" unicode="&#x2c7;" horiz-adv-x="500" 
 />
    <glyph glyph-name="house" unicode="&#x2c9;" horiz-adv-x="500" 
 />
    <glyph glyph-name="endash" unicode="&#x2d8;" horiz-adv-x="299" 
d="M-16 780l70.999 -0.000976562v-3.5v-3.5c0 -24 9.5 -41.333 28.5 -52s40.167 -16.334 63.5 -17.001h2.5h3.5c24.667 0.666992 47.5 6.83398 68.5 18.501s31.5 27.5 31.5 47.5v4.5c0 1.66699 -0.333008 3.16699 -1 4.5l71 1c-2.66699 -38 -14.167 -67.833 -34.5 -89.5
s-42.5 -37.5 -66.5 -47.5c-11.333 -4.66699 -22.666 -8.16699 -33.999 -10.5s-21.666 -3.5 -30.999 -3.5c-2 -0.666992 -4.16699 -1 -6.5 -1h-7.5c-8 0 -16.333 0.666992 -25 2s-17.334 3.66602 -26.001 6.99902c-26.667 8.66699 -51.167 24.834 -73.5 48.501
s-33.5 54.834 -33.5 93.501z" />
    <glyph glyph-name="sfthyphen" unicode="&#x2d9;" horiz-adv-x="500" 
 />
    <glyph glyph-name="filledbox" unicode="&#x2da;" horiz-adv-x="299" 
d="M39 654c0 34.667 11.498 60.6699 34.498 78.0029s48.167 26.333 75.5 27h1.5h1.5c26.667 -0.666992 51.334 -9.83398 74.001 -27.501s34 -43.834 34 -78.501v-2v-1v-2v-2c0.666992 -36.667 -10.166 -64.334 -32.499 -83.001s-47.166 -28 -74.499 -28h-2.5h-3.5
c-26.667 0.666992 -51.334 11 -74.001 31s-34 49 -34 87v1zM101.998 654.003c0 -16 4.83301 -28 14.5 -36s20.5 -12 32.5 -12s23 3.83301 33 11.5s15 19.5 15 35.5c0 13.333 -4.83301 23.5 -14.5 30.5s-20.5 10.5 -32.5 10.5s-23 -3.33301 -33 -10s-15 -17 -15 -31v1z" />
    <glyph glyph-name="glyph223" unicode="&#x2db;" horiz-adv-x="500" 
 />
    <glyph glyph-name="onehalf" unicode="&#x2dc;" horiz-adv-x="299" 
d="M63 567l-63 71l150 118l149 -126l-63 -63l-86 71l-87 -71v0z" />
    <glyph glyph-name="Gamma" unicode="&#x393;" 
 />
    <glyph glyph-name="Theta" unicode="&#x398;" 
 />
    <glyph glyph-name="exclamdown" unicode="&#x3a3;" 
 />
    <glyph glyph-name="Phi" unicode="&#x3a6;" 
 />
    <glyph glyph-name="Atilde" unicode="&#x3a9;" 
 />
    <glyph glyph-name="alpha" unicode="&#x3b1;" 
 />
    <glyph glyph-name="delta" unicode="&#x3b4;" 
 />
    <glyph glyph-name="epsilon" unicode="&#x3b5;" 
 />
    <glyph glyph-name="guillemotleft" unicode="&#x3c0;" 
 />
    <glyph glyph-name="sigma" unicode="&#x3c3;" 
 />
    <glyph glyph-name="tau" unicode="&#x3c4;" 
 />
    <glyph glyph-name="phi" unicode="&#x3c6;" 
 />
    <glyph glyph-name="glyph259" unicode="&#x2013;" horiz-adv-x="504" 
d="M0 402h504v-142h-504v142v0z" />
    <glyph glyph-name="periodcentered" unicode="&#x2014;" horiz-adv-x="1000" 
d="M-8 268v141h1000h8v-141h-1000h-8v0z" />
    <glyph glyph-name="underscoredbl" unicode="&#x2017;" 
 />
    <glyph glyph-name="Acircumflex" unicode="&#x2018;" horiz-adv-x="299" 
d="M181 748h95l-95 -307h-157l157 307v0z" />
    <glyph glyph-name="Ecircumflex" unicode="&#x2019;" horiz-adv-x="299" 
d="M16 449l102 307h150l-150 -307h-102v0z" />
    <glyph glyph-name="Ugrave" unicode="&#x201a;" 
 />
    <glyph glyph-name="quotedblbase" unicode="&#x201c;" horiz-adv-x="488" 
d="M165 756h103l-103 -307h-149l149 307v0zM354 756h95l-95 -307h-149l149 307v0z" />
    <glyph glyph-name="perthousand" unicode="&#x201d;" horiz-adv-x="488" 
d="M126 756h150l-150 -307h-102l102 307v0zM315 756h150l-142 -307h-110l102 307v0z" />
    <glyph glyph-name="dotlessi" unicode="&#x201e;" horiz-adv-x="488" 
d="M126 165h157l-157 -315h-102l102 315v0zM315 165h157l-157 -315h-102l102 315v0z" />
    <glyph glyph-name="dagger" unicode="&#x2020;" horiz-adv-x="488" 
d="M47 504h126v252h134v-252h126v-126h-126v-543h-134v543h-126v126v0z" />
    <glyph glyph-name="Uacute" unicode="&#x2021;" horiz-adv-x="488" 
d="M55 543h126v221h142v-221h126v-126h-126v-173h126v-134h-126v-275h-142v275h-126v134h126v173h-126v126v0z" />
    <glyph glyph-name="glyph262" unicode="&#x2022;" horiz-adv-x="417" 
d="M55 315c11.333 11.333 23.668 19.834 37.001 25.501s27 8.5 41 8.5c24 0 45.333 -7.66699 64 -23s28 -36 28 -62c0 -8 -0.833008 -16.333 -2.5 -25s-4.83398 -17.667 -9.50098 -27c-8.66699 -18.667 -20.5 -32.334 -35.5 -41.001s-30.5 -13 -46.5 -13
c-24.667 0 -47.167 8.66699 -67.5 26s-30.5 39.333 -30.5 66c0 9.33301 1.66699 19.5 5 30.5s9 22.167 17 33.5v1z" />
    <glyph glyph-name="fraction" unicode="&#x2026;" horiz-adv-x="1000" 
d="M748 126c9.33301 10 19.167 18.168 29.5 24.501s20.5 10.5 30.5 12.5c2.66699 0 5.33398 0.166992 8.00098 0.5s5.33398 0.5 8.00098 0.5c24 0 45 -8.33301 63 -25s27 -37.334 27 -62.001c0 -8.66699 -1.33301 -17.5 -4 -26.5s-6.66699 -18.167 -12 -27.5
c-10 -15.333 -21.5 -26.5 -34.5 -33.5s-26.167 -10.5 -39.5 -10.5c-24 0 -45.833 9.16699 -65.5 27.5s-29.5 40.166 -29.5 65.499c0 4 0.333008 8.33301 1 13s2 9.33398 4 14.001c1.33301 4 3.16602 8.33301 5.49902 13s5.16602 9 8.49902 13v1zM417.001 126.001
c9.33301 12 19.1641 21.167 29.4971 27.5s20.5 10.833 30.5 13.5c2.66699 0 5.33398 0.166992 8.00098 0.5s5.33398 0.5 8.00098 0.5c24 0.666992 45.333 -8.16602 64 -26.499s28 -39.833 28 -64.5c0 -4 -0.333008 -8.33301 -1 -13s-1.66699 -9 -3 -13
c-3.33301 -9.33301 -8 -18.333 -14 -27s-14 -16.667 -24 -24c-6.66699 -6 -14.167 -10.5 -22.5 -13.5s-17.166 -4.5 -26.499 -4.5h-2.5h-3.5c-22 1.33301 -42.167 10.166 -60.5 26.499s-27.5 36.833 -27.5 61.5c0 8.66699 1.33301 17.5 4 26.5s7 18.5 13 28.5v1z
M78.999 126.001c8.66699 12.667 18.502 22.668 29.502 30.001s21.833 12.333 32.5 15c3.33301 0.666992 6.5 1.16699 9.5 1.5s6.16699 0.5 9.5 0.5c26 0 49.167 -10 69.5 -30s30.833 -42.667 31.5 -68c0 -2.66699 -0.166992 -5.5 -0.5 -8.5s-0.833008 -5.83301 -1.5 -8.5
c-2 -8.66699 -5.5 -17.334 -10.5 -26.001s-11.833 -17 -20.5 -25c-7.33301 -6 -14.833 -10.833 -22.5 -14.5s-15.5 -6.16699 -23.5 -7.5c-2.66699 -0.666992 -5.33398 -1.16699 -8.00098 -1.5s-5.33398 -0.5 -8.00098 -0.5c-25.333 0 -48 9.5 -68 28.5s-30 41.833 -30 68.5
c0 7.33301 0.833008 14.833 2.5 22.5s4.5 15.167 8.5 22.5v1z" />
    <glyph glyph-name="circumflex" unicode="&#x2030;" horiz-adv-x="1236" 
d="M929 354c14 22 30.0029 38.6689 48.0029 50.002s36 18.333 54 21c3.33301 0 6.5 0.166992 9.5 0.5s6.16699 0.5 9.5 0.5c28 0 54.167 -7.33301 78.5 -22s41.5 -30.667 51.5 -48c0 -0.666992 0.166992 -1.16699 0.5 -1.5s0.5 -0.833008 0.5 -1.5
c7.33301 -12 12.666 -27.167 15.999 -45.5s5.66602 -37.166 6.99902 -56.499c0.666992 -10 1.16699 -19.833 1.5 -29.5s0.5 -18.834 0.5 -27.501v-19.5v-17.5c-0.666992 -5.33301 -1 -10 -1 -14v-10c-4.66699 -44 -22.5 -79.333 -53.5 -106s-64.833 -40 -101.5 -40
c-28.667 0 -56.334 9.5 -83.001 28.5s-47 50.167 -61 93.5c-4 11.333 -7.5 25.666 -10.5 42.999s-4.5 36.333 -4.5 57c0 10.667 0.5 21.667 1.5 33s2.83301 22.666 5.5 33.999c2.66699 13.333 6.5 26.5 11.5 39.5s11.5 25.5 19.5 37.5v1zM1016 213.002
c0 34.667 3.99902 60.168 11.999 76.501s17 24.166 27 23.499s19 -9 27 -25s12 -39 12 -69c0 -39.333 -4.16699 -69 -12.5 -89s-17.166 -30.667 -26.499 -32c-10 -2 -19.167 5.16699 -27.5 21.5s-12.5 40.833 -12.5 73.5v4.5c0 1.66699 0.333008 3.5 1 5.5v4.5v4.5v1z
M543.002 354.003c14 24 31.832 42.1621 53.499 54.4951s43.834 19.5 66.501 21.5h3.5h3.5c27.333 0 53.166 -7.33301 77.499 -22s42.833 -35.667 55.5 -63c4.66699 -9.33301 8.66699 -18.833 12 -28.5s6 -19.167 8 -28.5c2.66699 -13.333 4.5 -26.666 5.5 -39.999
s1.5 -25.666 1.5 -36.999c0 -8 -0.166992 -15.833 -0.5 -23.5s-0.5 -14.5 -0.5 -20.5c-0.666992 -6 -1.16699 -11.167 -1.5 -15.5s-0.5 -7.83301 -0.5 -10.5c-8.66699 -51.333 -28 -89.166 -58 -113.499s-62 -36.833 -96 -37.5h-2h-2c-30 0 -58.167 8.33301 -84.5 25
s-45.166 40.334 -56.499 71.001c-4.66699 17.333 -8.5 35.833 -11.5 55.5s-4.5 39.834 -4.5 60.501v7.5v6.5c0.666992 24.667 3.5 48.667 8.5 72s12.5 45 22.5 65v1zM630.001 212.998c-0.666992 -5.33301 -1.16797 -10.333 -1.50098 -15s-0.5 -9 -0.5 -13
c0 -26.667 4.16699 -47.834 12.5 -63.501s17.833 -23.5 28.5 -23.5c10 -0.666992 19.167 7.33301 27.5 24s12.5 44 12.5 82c0 35.333 -4.16699 61.833 -12.5 79.5s-17.166 26.834 -26.499 27.501c-10 0.666992 -19.167 -7.33301 -27.5 -24s-12.5 -41.667 -12.5 -75v1z
M559 747.998h110l-362 -748h-110l362 748v0zM71 676.998c14 20.667 28.5039 37.6699 43.5039 51.0029s30.167 23 45.5 29c8 3.33301 15.833 5.66602 23.5 6.99902s15.167 2 22.5 2c33.333 0 63.5 -11.333 90.5 -34s46.167 -49 57.5 -79
c4.66699 -10.667 8 -23.334 10 -38.001s3 -29.667 3 -45v-5.5v-4.5c-0.666992 -16 -1.83398 -31.5 -3.50098 -46.5l-4.5 -40.5c-1.33301 -5.33301 -2.33301 -10 -3 -14s-1.33398 -7.66699 -2.00098 -11c-8.66699 -38.667 -27.334 -68.5 -56.001 -89.5
s-59.334 -32.167 -92.001 -33.5h-4h-4c-26.667 0 -51.5 6.16699 -74.5 18.5s-40.5 31.5 -52.5 57.5c-6.66699 13.333 -12.834 32.5 -18.501 57.5s-8.5 52.167 -8.5 81.5c0 11.333 0.5 22.666 1.5 33.999s2.5 22.666 4.5 33.999s4.83301 22.833 8.5 34.5
s7.83398 22.834 12.501 33.501v1zM165.004 535.001v-5v-4c-0.666992 -1.33301 -1 -2.66602 -1 -3.99902v-4c0 -29.333 4.16699 -51 12.5 -65s17.5 -20 27.5 -18c10 1.33301 19.167 10.166 27.5 26.499s12.5 40.5 12.5 72.5v8.5v7.5c0 30 -4 53.167 -12 69.5
s-16.667 25.166 -26 26.499h-1.5h-1.5c-9.33301 0.666992 -18 -6.66602 -26 -21.999s-12 -39 -12 -71v-4.5v-4.5v-5.5v-4.5v1z" />
    <glyph glyph-name="Igrave" unicode="&#x2039;" horiz-adv-x="260" 
d="M157 567l87 -47l-110 -189l110 -197l-87 -40l-133 237l133 236v0z" />
    <glyph glyph-name="Oacute" unicode="&#x203a;" horiz-adv-x="260" 
d="M31 528l79 47l134 -236l-134 -237l-79 40l103 197l-103 189v0z" />
    <glyph glyph-name="exclamdbl" unicode="&#x203c;" 
 />
    <glyph glyph-name="uni207F" unicode="&#x207f;" 
 />
    <glyph glyph-name="franc" unicode="&#x20a3;" 
 />
    <glyph glyph-name="peseta" unicode="&#x20a7;" 
 />
    <glyph glyph-name="trademark" unicode="&#x2122;" horiz-adv-x="803" 
d="M496 756l79 -252l86 252h134v-410h-86v331l-111 -331h-47l-102 331v-331h-87v410h134v0zM8 756h315v-79h-118v-323h-79v323h-118v79v0z" />
    <glyph glyph-name="arrowleft" unicode="&#x2190;" 
 />
    <glyph glyph-name="arrowup" unicode="&#x2191;" 
 />
    <glyph glyph-name="glyph257" unicode="&#x2192;" horiz-adv-x="500" 
 />
    <glyph glyph-name="arrowdown" unicode="&#x2193;" 
 />
    <glyph glyph-name="arrowboth" unicode="&#x2194;" 
 />
    <glyph glyph-name="arrowupdn" unicode="&#x2195;" 
 />
    <glyph glyph-name="arrowupdnbse" unicode="&#x21a8;" 
 />
    <glyph glyph-name="questiondown" unicode="&#x2202;" 
 />
    <glyph glyph-name="quoteright" unicode="&#x2206;" 
 />
    <glyph glyph-name="florin" unicode="&#x220f;" 
 />
    <glyph glyph-name="minus" unicode="&#x2212;" 
 />
    <glyph glyph-name="Icircumflex" unicode="&#x2215;" horiz-adv-x="500" 
 />
    <glyph glyph-name="Ucircumflex" unicode="&#x2219;" 
d="M24 378c0 58.667 19.667 102.665 59 131.998s82.333 44 129 44c47.333 0 90.833 -14.667 130.5 -44s59.5 -73.666 59.5 -132.999c0 -64.667 -19.667 -113.667 -59 -147s-82.333 -50.333 -129 -51h-1.5h-1.5c-46.667 0 -89.5 16.333 -128.5 49s-58.5 82.334 -58.5 149.001
v1z" />
    <glyph glyph-name="quotedblleft" unicode="&#x221a;" 
 />
    <glyph glyph-name="yen" unicode="&#x221e;" 
 />
    <glyph glyph-name="orthogonal" unicode="&#x221f;" 
 />
    <glyph glyph-name="intersection" unicode="&#x2229;" 
 />
    <glyph glyph-name="guillemotright" unicode="&#x222b;" 
 />
    <glyph glyph-name="quoteleft" unicode="&#x2248;" 
 />
    <glyph glyph-name="AE" unicode="&#x2260;" 
 />
    <glyph glyph-name="equivalence" unicode="&#x2261;" 
 />
    <glyph glyph-name="ordfeminine" unicode="&#x2264;" 
 />
    <glyph glyph-name="ordmasculine" unicode="&#x2265;" 
 />
    <glyph glyph-name="glyph258" unicode="&#x2302;" 
 />
    <glyph glyph-name="revlogicalnot" unicode="&#x2310;" 
 />
    <glyph glyph-name="integraltp" unicode="&#x2320;" 
 />
    <glyph glyph-name="integralbt" unicode="&#x2321;" 
 />
    <glyph glyph-name="SF100000" unicode="&#x2500;" 
 />
    <glyph glyph-name="SF110000" unicode="&#x2502;" 
 />
    <glyph glyph-name="SF010000" unicode="&#x250c;" 
 />
    <glyph glyph-name="SF030000" unicode="&#x2510;" 
 />
    <glyph glyph-name="SF020000" unicode="&#x2514;" 
 />
    <glyph glyph-name="SF040000" unicode="&#x2518;" 
 />
    <glyph glyph-name="SF080000" unicode="&#x251c;" 
 />
    <glyph glyph-name="SF090000" unicode="&#x2524;" 
 />
    <glyph glyph-name="SF060000" unicode="&#x252c;" 
 />
    <glyph glyph-name="SF070000" unicode="&#x2534;" 
 />
    <glyph glyph-name="SF050000" unicode="&#x253c;" 
 />
    <glyph glyph-name="SF430000" unicode="&#x2550;" 
 />
    <glyph glyph-name="SF240000" unicode="&#x2551;" 
 />
    <glyph glyph-name="SF510000" unicode="&#x2552;" 
 />
    <glyph glyph-name="SF520000" unicode="&#x2553;" 
 />
    <glyph glyph-name="SF390000" unicode="&#x2554;" 
 />
    <glyph glyph-name="SF220000" unicode="&#x2555;" 
 />
    <glyph glyph-name="SF210000" unicode="&#x2556;" 
 />
    <glyph glyph-name="SF250000" unicode="&#x2557;" 
 />
    <glyph glyph-name="SF500000" unicode="&#x2558;" 
 />
    <glyph glyph-name="SF490000" unicode="&#x2559;" 
 />
    <glyph glyph-name="SF380000" unicode="&#x255a;" 
 />
    <glyph glyph-name="SF280000" unicode="&#x255b;" 
 />
    <glyph glyph-name="SF270000" unicode="&#x255c;" 
 />
    <glyph glyph-name="SF260000" unicode="&#x255d;" 
 />
    <glyph glyph-name="SF360000" unicode="&#x255e;" 
 />
    <glyph glyph-name="SF370000" unicode="&#x255f;" 
 />
    <glyph glyph-name="SF420000" unicode="&#x2560;" 
 />
    <glyph glyph-name="SF190000" unicode="&#x2561;" 
 />
    <glyph glyph-name="SF200000" unicode="&#x2562;" 
 />
    <glyph glyph-name="SF230000" unicode="&#x2563;" 
 />
    <glyph glyph-name="SF470000" unicode="&#x2564;" 
 />
    <glyph glyph-name="SF480000" unicode="&#x2565;" 
 />
    <glyph glyph-name="SF410000" unicode="&#x2566;" 
 />
    <glyph glyph-name="SF450000" unicode="&#x2567;" 
 />
    <glyph glyph-name="SF460000" unicode="&#x2568;" 
 />
    <glyph glyph-name="SF400000" unicode="&#x2569;" 
 />
    <glyph glyph-name="SF540000" unicode="&#x256a;" 
 />
    <glyph glyph-name="SF530000" unicode="&#x256b;" 
 />
    <glyph glyph-name="SF440000" unicode="&#x256c;" 
 />
    <glyph glyph-name="upblock" unicode="&#x2580;" 
 />
    <glyph glyph-name="dnblock" unicode="&#x2584;" 
 />
    <glyph glyph-name="block" unicode="&#x2588;" 
 />
    <glyph glyph-name="lfblock" unicode="&#x258c;" 
 />
    <glyph glyph-name="rtblock" unicode="&#x2590;" 
 />
    <glyph glyph-name="ltshade" unicode="&#x2591;" 
 />
    <glyph glyph-name="shade" unicode="&#x2592;" 
 />
    <glyph glyph-name="dkshade" unicode="&#x2593;" 
 />
    <glyph glyph-name="glyph261" unicode="&#x25a0;" horiz-adv-x="500" 
 />
    <glyph glyph-name="filledrect" unicode="&#x25ac;" 
 />
    <glyph glyph-name="triagup" unicode="&#x25b2;" 
 />
    <glyph glyph-name="triagrt" unicode="&#x25ba;" 
 />
    <glyph glyph-name="triagdn" unicode="&#x25bc;" 
 />
    <glyph glyph-name="triaglf" unicode="&#x25c4;" 
 />
    <glyph glyph-name="Edieresis" unicode="&#x25ca;" 
 />
    <glyph glyph-name="circle" unicode="&#x25cb;" 
 />
    <glyph glyph-name="invbullet" unicode="&#x25d8;" 
 />
    <glyph glyph-name="invcircle" unicode="&#x25d9;" 
 />
    <glyph glyph-name="smileface" unicode="&#x263a;" 
 />
    <glyph glyph-name="invsmileface" unicode="&#x263b;" 
 />
    <glyph glyph-name="sun" unicode="&#x263c;" 
 />
    <glyph glyph-name="female" unicode="&#x2640;" 
 />
    <glyph glyph-name="male" unicode="&#x2642;" 
 />
    <glyph glyph-name="spade" unicode="&#x2660;" 
 />
    <glyph glyph-name="club" unicode="&#x2663;" 
 />
    <glyph glyph-name="heart" unicode="&#x2665;" 
 />
    <glyph glyph-name="diamond" unicode="&#x2666;" 
 />
    <glyph glyph-name="musicalnote" unicode="&#x266a;" 
 />
    <glyph glyph-name="musicalnotedbl" unicode="&#x266b;" 
 />
    <glyph glyph-name="Scaron" unicode="&#xf000;" 
 />
    <glyph glyph-name="Ocircumflex" unicode="&#xf001;" horiz-adv-x="535" 
d="M8 394l-0.00195312 118h63v149c0 64 13 107 39 129s54.333 33.333 85 34h1.5h1.5c14 0 27.833 -1.5 41.5 -4.5s25.834 -6.16699 36.501 -9.5v-141c-5.33301 2.66699 -10.5 5 -15.5 7s-9.5 3 -13.5 3c-9.33301 0 -16.666 -4.16699 -21.999 -12.5s-9 -17.833 -11 -28.5
c0 -2.66699 -0.166992 -5.5 -0.5 -8.5s-0.5 -5.83301 -0.5 -8.5v-109h63v-118h-63v-394h-142v394h-63v0zM338.998 504h141v-504h-141v504v0zM495.998 685c1.33301 -6.66699 2.16504 -12.5 2.49805 -17.5s0.5 -10.167 0.5 -15.5c0.666992 -30 -7.66602 -51.833 -24.999 -65.5
s-36.666 -20.5 -57.999 -20.5h-1.5h-1.5c-21.333 0.666992 -41.166 7.16699 -59.499 19.5s-28.5 29.5 -30.5 51.5v4.5v4.5c0 33.333 8.83301 57.5 26.5 72.5s37.167 22.5 58.5 22.5h2h2c18 -0.666992 35.167 -6 51.5 -16s27.166 -23.667 32.499 -41v1z" />
    <glyph glyph-name="Ograve" unicode="&#xf002;" horiz-adv-x="535" 
d="M79 0l-0.00195312 393.999h-71v110h63v189c2 42 14 73.167 36 93.5s45.667 32.833 71 37.5c4.66699 0.666992 9.33398 1.16699 14.001 1.5s9.33398 0.5 14.001 0.5c16.667 0 32 -2.16699 46 -6.5s24.333 -10.166 31 -17.499v-133c0 -0.666992 -1 -0.5 -3 0.5
s-4.33301 2.5 -7 4.5c-3.33301 1.33301 -7 2.5 -11 3.5s-8 1.5 -12 1.5h-1.5h-1.5c-8.66699 -0.666992 -16.5 -5.5 -23.5 -14.5s-10.5 -26.167 -10.5 -51.5v-109h70v-118h-70v-386h-134v0zM345.998 802.999h142v-803h-142v803v0z" />
    <glyph glyph-name="glyph1" horiz-adv-x="0" 
 />
    <glyph glyph-name="glyph2" 
 />
    <glyph glyph-name="degree" horiz-adv-x="500" 
 />
    <glyph glyph-name="bullet" horiz-adv-x="417" 
d="M55 315c11.333 11.333 23.668 19.834 37.001 25.501s27 8.5 41 8.5c24 0 45.333 -7.66699 64 -23s28 -36 28 -62c0 -8 -0.833008 -16.333 -2.5 -25s-4.83398 -17.667 -9.50098 -27c-8.66699 -18.667 -20.5 -32.334 -35.5 -41.001s-30.5 -13 -46.5 -13
c-24.667 0 -47.167 8.66699 -67.5 26s-30.5 39.333 -30.5 66c0 9.33301 1.66699 19.5 5 30.5s9 22.167 17 33.5v1z" />
    <glyph glyph-name="daggerdbl" horiz-adv-x="504" 
d="M0 402h504v-142h-504v142v0z" />
    </font>
</defs>
</svg>
